<?xml version="1.0" encoding="utf-8"?>
<!-- Generator: Adobe Illustrator 24.1.0, SVG Export Plug-In . SVG Version: 6.00 Build 0)  -->
<svg version="1.1" id="Capa_1" xmlns="http://www.w3.org/2000/svg" xmlns:xlink="http://www.w3.org/1999/xlink" x="0px" y="0px"
	 viewBox="0 0 351.6 339" style="enable-background:new 0 0 351.6 339;" xml:space="preserve">
<style type="text/css">
	.st0{fill:#FFFFFF;}
	.st1{fill:#073DAF;}
</style>
<g>
	<g>
		<path class="st0" d="M-333,149.8h-60.4c-2.2,0-3.9-1.8-3.9-3.9c0-2.1,1.7-3.9,3.9-3.9h60.4c2.2,0,3.9,1.8,3.9,3.9
			C-329.1,148-330.8,149.8-333,149.8z"/>
	</g>
	<g>
		<path class="st0" d="M-333,176.1h-60.4c-2.2,0-3.9-1.8-3.9-3.9c0-2.1,1.8-3.9,3.9-3.9h60.4c2.2,0,3.9,1.8,3.9,3.9
			C-329.1,174.3-330.8,176.1-333,176.1z"/>
	</g>
	<g>
		<path class="st0" d="M-333,202.4h-60.4c-2.2,0-3.9-1.8-3.9-3.9c0-2.2,1.8-3.9,3.9-3.9h60.4c2.2,0,3.9,1.8,3.9,3.9
			C-329.1,200.6-330.8,202.4-333,202.4z"/>
	</g>
</g>
<g>
	<g id="SgtdWC_1_">
		
			<image style="overflow:visible;" width="1" height="1" id="SgtdWC_2_" xlink:href="361EF58E84B1DF23.png"  transform="matrix(1 0 0 1 554.5554 167.7932)">
		</image>
	</g>
	<path class="st1" d="M555.1,226.2c-15.3-11.2-27.3-24.9-35.9-40.8h-11.3c8.4,17.1,22.1,35.7,44.2,51.1l2.5,1.7l0.4-0.2l0.5,0.2
		l2.5-1.7c22.1-15.4,35.8-34,44.2-51.1h-11.3C582.3,201.3,570.3,215,555.1,226.2z"/>
	<path class="st1" d="M506.2,148.5c-2.5-12.8-2.5-23.1-2.3-27.6c1.7-0.8,4.3-1.9,8.3-3.2c27.6-9.1,58-9.1,85.6,0
		c4,1.3,6.6,2.4,8.3,3.2c0.2,4.6,0.2,14.8-2.3,27.6c1.3-0.2,2.8-0.3,4.3-0.3h6c3.1-17.8,1.9-30.4,1.8-31l-0.3-2.5l-2.1-1.3
		c-2.7-1.7-7-3.5-12.7-5.4c-29.7-9.8-62.3-9.8-92,0c-5.7,1.9-10,3.7-12.7,5.4l-2.1,1.3l-0.3,2.5c-0.1,0.6-1.3,13.2,1.8,31h6
		C503.4,148.2,504.8,148.3,506.2,148.5z"/>
	<path class="st1" d="M576,138.3c-2.2,0-4.3,0-6.5,0c-0.8,0-1.5,0.2-2.1,0.7c-1.4,1-2.9,1.8-4.6,2.2c-0.6-1.6-1.7-3-3.2-4
		c-1.4-1-3.2-1.5-4.9-1.3c-3.5,0.3-5.8,2.1-7.3,5.3c-1.6-0.5-3.1-1.2-4.5-2.2c-0.5-0.3-1.1-0.7-1.7-0.7c-2.4-0.1-4.8,0-7.2,0
		c-0.4,0-0.8,0.1-1.1,0.3c-0.3,0.2-0.6,0.5-0.8,0.8c-0.3,0.4-0.4,0.8-0.4,1.2c0,0.4,0.1,0.9,0.3,1.3c0.5,0.9,1.3,1.3,2.3,1.3
		c1.9,0,3.7,0,5.6,0c0.3,0,0.5,0.1,0.7,0.2c1.9,1.3,4,2.2,6.3,2.7c0.2,0,0.3,0.1,0.4,0.3c0.4,0.9,0.9,1.8,1.3,2.8
		c-0.1,0.1-0.3,0.2-0.5,0.3c-4.2,2.7-6.5,6.5-6.6,11.4c-0.1,5.3,0,10.5,0,15.8c0,2.4,2.1,4.8,5.5,4.2c0-0.2,0-0.5,0-0.8
		c0-2.7-0.1-5.4,0.1-8.1c0.3-4.2,4.4-7.9,9.3-7.1c4.3,0.7,7,4,7,8.3c0,2.3,0,4.7,0,7c0,0.2,0,0.4,0,0.7h0.8c3,0,4.7-1.7,4.7-4.7
		c0-5,0-9.9,0-14.9c0-4.4-1.7-8.1-5.2-10.9c-0.7-0.5-1.4-1-2-1.4c0.4-0.8,0.8-1.6,1.1-2.4c0-0.2,0.2-0.4,0.3-0.5
		c0.1-0.1,0.3-0.2,0.5-0.2c2.1-0.5,4-1.3,5.8-2.5c0.3-0.2,0.7-0.3,1.1-0.3c1.8,0,3.6,0,5.4,0c1.6,0,2.6-1,2.6-2.5
		S577.5,138.3,576,138.3z M555.2,148.7c-1.2,0-2.4-0.5-3.2-1.3c-0.8-0.9-1.3-2-1.3-3.2c0-0.6,0.1-1.2,0.3-1.7c0.2-0.5,0.6-1,1-1.5
		c0.4-0.4,0.9-0.7,1.5-1c0.5-0.2,1.1-0.3,1.7-0.3c0.6,0,1.2,0.1,1.7,0.3c0.6,0.2,1.1,0.6,1.5,1c0.4,0.4,0.8,0.9,1,1.5
		c0.2,0.6,0.3,1.1,0.3,1.7c0,0.6-0.1,1.2-0.3,1.7c-0.2,0.6-0.6,1.1-1,1.5c-0.4,0.4-0.9,0.8-1.5,1
		C556.4,148.6,555.8,148.7,555.2,148.7z"/>
	<path class="st1" d="M550.7,179.5c0-2.2-0.1-4.4,0-6.5c0.1-3.5,4.1-5.4,6.9-3.5c1.2,0.8,2,2,2,3.5c0,4.4,0.1,8.8,0,13.3
		c0,2.3-2.1,4.2-4.5,4.2c-2.4,0-4.4-1.9-4.5-4.2C550.6,184,550.7,181.8,550.7,179.5z"/>
</g>
<g>
	<path class="st1" d="M578.6,18.8C563.3,7.5,551.4-6.1,542.8-22h-11.3c8.4,17.1,22.1,35.7,44.2,51.1l2.5,1.7l0.4-0.2l0.5,0.2
		l2.5-1.7c22.1-15.4,35.8-34,44.2-51.1h-11.3C605.9-6.1,593.9,7.5,578.6,18.8z"/>
	<path class="st1" d="M529.7-58.9c-2.5-12.8-2.5-23.1-2.3-27.6c1.7-0.8,4.3-1.9,8.3-3.2c27.6-9.1,58-9.1,85.6,0
		c4,1.3,6.6,2.4,8.3,3.2c0.2,4.6,0.2,14.8-2.3,27.6c1.3-0.2,2.8-0.3,4.3-0.3h6c3.1-17.8,1.9-30.4,1.8-31l-0.3-2.5l-2.1-1.3
		c-2.7-1.7-7-3.5-12.7-5.4c-29.7-9.8-62.3-9.8-92,0c-5.7,1.9-10,3.7-12.7,5.4l-2.1,1.3l-0.3,2.5c-0.1,0.6-1.3,13.2,1.8,31h6
		C527-59.2,528.4-59.1,529.7-58.9z"/>
	<path class="st1" d="M604.3-52.4c-0.1-0.2-0.2-0.3-0.4-0.5c-0.2-0.1-0.4-0.2-0.6-0.1c-1.4,0-2.8,0-4.2,0c-0.1,0-0.3,0-0.4-0.1
		c-0.1-0.1-0.2-0.2-0.2-0.3c-0.9-2.1-1.7-4.2-2.8-6.2c-1.3-2.5-3.2-4.2-6.4-4.1c-7.1,0.1-14.2,0-21.3,0c-0.5,0-1.1,0-1.6,0.1
		c-2.3,0.4-3.7,1.9-4.6,3.8c-1.1,2.1-2,4.3-2.9,6.4c0,0.1-0.1,0.3-0.3,0.4c-0.1,0.1-0.3,0.1-0.5,0.1c-1.4,0-2.7,0-4.1,0
		c-0.2,0-0.4,0-0.6,0.2c-0.2,0.1-0.3,0.3-0.4,0.5c-0.1,0.3-0.2,0.6-0.2,0.9s0.1,0.6,0.2,0.9c0.1,0.3,0.3,0.5,0.6,0.8
		c0.2,0.2,0.5,0.4,0.8,0.5c0.7,0.2,1.5,0.4,2.2,0.6c-0.5,1.2-1,2.5-1.5,3.7c-0.1,0.2-0.2,0.5-0.2,0.7c0,5.2,0,10.4,0.1,15.5
		c0,0.2,0,0.5,0.1,0.7c0.1,0.2,0.2,0.4,0.4,0.6c0.2,0.2,0.4,0.3,0.6,0.4c0.2,0.1,0.5,0.1,0.7,0.2c2.4,0,4.8,0,7.1,0
		c0.4,0,0.9-0.2,1.2-0.5c0.3-0.3,0.5-0.7,0.6-1.1c0.1-1.3,0.1-2.6,0.1-3.9v-0.7h25.8c0,1.4,0,2.8,0,4.2c0,1.2,0.8,2,2,2
		c2.3,0,4.5,0,6.8,0c0.3,0,0.5,0,0.8-0.1c0.3-0.1,0.5-0.2,0.7-0.4c0.2-0.2,0.3-0.4,0.4-0.7c0.1-0.2,0.1-0.5,0.1-0.8
		c0-5.1,0.1-10.2,0.1-15.3c0-0.3-0.1-0.6-0.2-0.8c-0.5-1.2-1.1-2.5-1.6-3.7c0.8-0.2,1.6-0.4,2.4-0.7c0.3-0.1,0.5-0.3,0.7-0.5
		c0.2-0.2,0.4-0.5,0.5-0.8c0.1-0.3,0.1-0.6,0.1-0.9C604.5-51.8,604.4-52.1,604.3-52.4L604.3-52.4z M562.3-37.9
		c-0.4,0-0.9-0.1-1.2-0.2s-0.8-0.4-1.1-0.7c-0.3-0.3-0.5-0.6-0.7-1c-0.2-0.4-0.2-0.8-0.2-1.2c0-0.4,0.1-0.8,0.2-1.2
		c0.2-0.4,0.4-0.7,0.7-1c0.3-0.3,0.7-0.5,1.1-0.7c0.4-0.2,0.8-0.2,1.3-0.3c0.9,0,1.7,0.4,2.3,0.9s1,1.4,1,2.2c0,0.4-0.1,0.8-0.2,1.2
		c-0.2,0.4-0.4,0.7-0.7,1c-0.3,0.3-0.7,0.5-1.1,0.7C563.2-38,562.8-37.9,562.3-37.9L562.3-37.9z M561.5-50.7c0-0.1,0.1-0.3,0.1-0.4
		c1-2.1,2-4.3,3-6.4c0.3-0.5,0.6-1,0.9-1.4c0.3-0.4,0.7-0.7,1.2-1c0.5-0.2,1-0.3,1.5-0.3c7,0,14,0,21,0c0.5,0,1,0.1,1.4,0.3
		c0.4,0.2,0.8,0.5,1.1,0.9c0.4,0.5,0.8,1.1,1.1,1.7c1,2.1,2,4.2,2.9,6.2c0.1,0.1,0.1,0.3,0.2,0.4L561.5-50.7z M595-37.9
		c-0.4,0-0.8-0.1-1.2-0.2c-0.4-0.2-0.8-0.4-1.1-0.7c-0.3-0.3-0.5-0.6-0.7-1c-0.2-0.4-0.2-0.8-0.2-1.2c0-0.4,0.1-0.8,0.2-1.2
		c0.2-0.4,0.4-0.7,0.7-1c0.3-0.3,0.7-0.5,1.1-0.7c0.4-0.2,0.8-0.2,1.3-0.2c0.9,0,1.7,0.4,2.3,1c0.6,0.6,1,1.4,1,2.2
		c0,0.4-0.1,0.8-0.3,1.2c-0.2,0.4-0.4,0.7-0.7,1s-0.7,0.5-1.1,0.7C595.9-38,595.4-37.9,595-37.9L595-37.9z"/>
</g>
<g>
	<path class="st1" d="M825,226.2c-15.3-11.2-27.3-24.9-35.9-40.8h-11.3c8.4,17.1,22.1,35.7,44.2,51.1l2.5,1.7l0.4-0.2l0.5,0.2
		l2.5-1.7c22.1-15.4,35.8-34,44.2-51.1h-11.3C852.2,201.3,840.2,215,825,226.2z"/>
	<path class="st1" d="M776.1,148.5c-2.5-12.8-2.5-23.1-2.3-27.6c1.7-0.8,4.3-1.9,8.3-3.2c27.6-9.1,58-9.1,85.6,0
		c4,1.3,6.6,2.4,8.3,3.2c0.2,4.6,0.2,14.8-2.3,27.6c1.3-0.2,2.8-0.3,4.3-0.3h6c3.1-17.8,1.9-30.4,1.8-31l-0.3-2.5l-2.1-1.3
		c-2.7-1.7-7-3.5-12.7-5.4c-29.7-9.8-62.3-9.8-92,0c-5.7,1.9-10,3.7-12.7,5.4l-2.1,1.3l-0.3,2.5c-0.1,0.6-1.3,13.2,1.8,31h6
		C773.3,148.2,774.7,148.3,776.1,148.5z"/>
	<path class="st1" d="M856.9,166.7c-0.5-6.3-6.2-11.3-12.7-11.3H844c-0.9,0-1.9,0.2-2.8,0.4l-0.9,0.2l-0.4-0.9c-0.5-1-1-2-1.6-3.1
		c-0.1-0.2-0.2-0.4-0.3-0.6c-0.2-0.3-0.4-0.7-0.5-1c-0.1-1.4-0.1-2.7-0.1-4.2c0-0.4,0-0.8,0-1.1h0.7c0.3,0,0.6,0,0.9-0.1
		c0.3-0.1,0.6-0.3,0.8-0.5c0.2-0.2,0.3-0.4,0.4-0.6s0.1-0.5,0.1-0.7c0-1.1-0.8-1.8-2.1-1.8c-2.4,0-4.7,0-7,0c-1.3,0-2.2,0.7-2.2,1.9
		s0.9,1.9,2.2,1.9c0.7,0,1.4,0,2.1,0h0.4v4h-21.8l0.2-0.7c0.4-1.5,0.8-3,1.3-4.5c0.1-0.1,0.2-0.1,0.3-0.2c0.7,0,1.4,0,2.1,0h1.2
		c1.3,0,2.1-0.7,2.2-1.8c0-0.2,0-0.5-0.1-0.7c-0.1-0.2-0.2-0.4-0.4-0.6c-0.2-0.2-0.5-0.4-0.8-0.5c-0.3-0.1-0.6-0.1-0.9-0.1
		c-0.8,0-1.5,0-2.3,0c-0.8,0-1.6,0-2.5,0c-1.2,0-1.9,0.6-2.2,1.7c-0.3,1.3-0.7,2.6-1.1,3.9l-0.5,1.7l-2.3,8.2
		c-7.7-0.7-12.9,4.6-14,10c-0.6,3-0.1,6,1.4,8.7c1.5,2.6,3.9,4.6,6.8,5.7c2.9,1,6,1,8.8-0.1c2.8-1.1,5.2-3.2,6.6-5.8
		c1.5-2.6,1.9-5.7,1.2-8.6c-0.9-4-3.3-7-7.2-8.8l0.5-1.8l0.1,0.1l3.3,3.5c3.3,3.5,6.7,7.1,10.1,10.6c0.3,0.3,0.7,0.6,1.1,0.8
		c0.4,0.2,0.9,0.3,1.3,0.2c0.8,0,1.7,0,2.5,0c0.9,0,1.9,0,2.9,0c0.3,0,0.4,0,0.4,0.4c1,5.9,6.4,10.3,12.4,10.3c0.6,0,1.2,0,1.8-0.1
		c3.2-0.5,6.2-2.2,8.2-4.7C856.2,173.2,857.2,170,856.9,166.7L856.9,166.7z M838.9,169.9h1.5c1.2,0,2.4,0,3.5,0
		c0.9,0,1.6-0.3,1.9-0.9c0.3-0.6,0.3-1.3-0.1-2.1c-0.8-1.6-1.6-3.2-2.4-4.7l-1.2-2.4c0-0.1-0.1-0.2-0.1-0.3c2.4-0.8,6.1-0.2,8.5,2.3
		c1.3,1.3,2.2,3.1,2.5,5c0.3,1.9-0.1,3.8-1,5.5c-0.9,1.6-2.3,3-4,3.8c-1.7,0.8-3.6,1.1-5.5,0.7c-1.7-0.3-3.3-1.1-4.6-2.4
		c-1.3-1.2-2.1-2.8-2.5-4.5L838.9,169.9z M835.5,154.8l1.4,2.8c-0.3,0.3-0.6,0.7-0.9,1c-0.9,0.9-1.7,1.9-2.4,2.9
		c-0.6,1.1-1.1,2.2-1.5,3.4c-0.1,0.4-0.3,0.8-0.5,1.2h-2.8L835.5,154.8z M841.2,166.1h-5.6c0.4-2,1.5-3.7,3.1-5L841.2,166.1z
		 M832.2,152.9l-7.1,12l-11.4-12H832.2z M804.3,159.2c0.2,0,0.5,0,0.7,0l-0.3,0.9c-0.3,1.2-0.7,2.4-1,3.6c-0.1,0.5-0.3,0.9-0.4,1.4
		c-0.2,0.7-0.4,1.4-0.6,2c-0.3,1.3,0.1,2.2,1.2,2.5c0.2,0.1,0.5,0.1,0.7,0.1c0.2,0,0.5-0.1,0.7-0.2c0.3-0.2,0.5-0.4,0.7-0.6
		c0.2-0.2,0.3-0.5,0.4-0.8c0.5-1.7,0.9-3.3,1.4-5c0.3-1,0.6-2,0.8-3c3.7,1.6,5.7,6.4,4.4,10.5c-0.7,2.1-2.2,3.9-4.2,5
		c-2,1.1-4.4,1.4-6.6,0.8c-2.2-0.6-4.1-2-5.3-4c-1.2-2-1.6-4.3-1-6.5C796.7,162,800.4,159.2,804.3,159.2L804.3,159.2z"/>
</g>
<g>
	<path class="st1" d="M1110.7,226.9c-15.5-11.4-27.6-25.2-36.3-41.2H1063c8.5,17.3,22.3,36.1,44.7,51.7l2.5,1.7l0.4-0.2l0.5,0.2
		l2.5-1.8c22.4-15.6,36.2-34.4,44.7-51.7h-11.4C1138.2,201.7,1126.1,215.5,1110.7,226.9z"/>
	<path class="st1" d="M1061.2,148.3c-2.5-13-2.5-23.3-2.3-28c1.7-0.8,4.4-1.9,8.4-3.2c27.9-9.2,58.7-9.2,86.6,0
		c4.1,1.3,6.7,2.4,8.4,3.2c0.2,4.6,0.2,15-2.3,27.9c1.4-0.2,2.8-0.3,4.4-0.3h6.1c3.2-18,1.9-30.7,1.9-31.3l-0.3-2.5l-2.1-1.3
		c-2.7-1.7-7-3.5-12.8-5.4c-30-9.9-63-9.9-93.1,0c-5.8,1.9-10.1,3.7-12.8,5.4l-2.1,1.3l-0.3,2.5c-0.1,0.6-1.3,13.3,1.9,31.3h6.1
		C1058.4,148,1059.9,148.1,1061.2,148.3z"/>
	<path class="st1" d="M1127.9,164.5v17.5h-12V166h-10.3v15.9h-11.9v-17.4c-0.5,0.2-1,0.4-1.5,0.5c-1.1,0.2-2.1-0.1-3-0.7
		c-0.9-0.6-1.5-1.5-1.8-2.5c-0.2-0.6-0.2-1.3-0.1-2c0.2-0.6,0.5-1.2,0.9-1.7c1.2-1.3,2.4-2.5,3.6-3.7c5.2-5.3,10.4-10.5,15.7-15.8
		c1.9-1.9,4.5-1.9,6.4,0c6.3,6.3,12.6,12.6,19,19c0.9,0.9,1.5,1.8,1.5,3.2c0,2.8-3.4,5.5-6.2,3.8
		C1128,164.5,1127.9,164.5,1127.9,164.5z"/>
</g>
<g>
	<path class="st1" d="M260-88.2c-15.5-11.4-27.6-25.2-36.3-41.2h-11.4c8.5,17.3,22.3,36.1,44.7,51.7l2.5,1.7l0.4-0.2l0.5,0.2
		l2.5-1.8c22.4-15.6,36.2-34.4,44.7-51.7h-11.4C287.6-113.4,275.5-99.6,260-88.2z"/>
	<path class="st1" d="M210.6-166.8c-2.5-13-2.5-23.3-2.3-28c1.7-0.8,4.4-1.9,8.4-3.2c27.9-9.2,58.7-9.2,86.6,0
		c4.1,1.3,6.7,2.4,8.4,3.2c0.2,4.6,0.2,15-2.3,27.9c1.4-0.2,2.8-0.3,4.4-0.3h6.1c3.2-18,1.9-30.7,1.9-31.3l-0.3-2.5l-2.1-1.3
		c-2.7-1.7-7-3.5-12.8-5.4c-30-9.9-63-9.9-93.1,0c-5.8,1.9-10.1,3.7-12.8,5.4l-2.1,1.3l-0.3,2.5c-0.1,0.6-1.3,13.3,1.9,31.3h6.1
		C207.8-167.1,209.2-167,210.6-166.8z"/>
	<path class="st1" d="M260-132.9h21.2c1,0,1,0,1-1v-21.5c0-0.2,0-0.3,0-0.5c-0.1-0.2-0.2-0.3-0.3-0.4c-0.5-0.3-1.1-0.5-1.6-0.7
		c-0.4-0.2-0.6-0.1-0.6,0.3c0,0.2,0,0.4,0,0.6v15.1c0,0.8-0.1,1-1,1h-37.3c-0.8,0-0.9-0.1-0.9-0.9v-10.3c0-1.8,0-3.5,0-5.3
		c0-0.6-0.2-0.7-0.7-0.4c-0.3,0.2-0.7,0.4-1.1,0.5c-0.6,0.1-0.8,0.4-0.8,1c0,7.2,0,14.4,0,21.6c0,0.9,0,0.9,0.9,0.9H260z
		 M253.8-175.3c-0.6,0-1.2,0-1.8,0c-0.6,0-0.8,0.2-0.9,0.8c-0.5,3.1-1,6.2-1.5,9.3c-0.3,1.6-0.4,3.3-0.3,4.9
		c0.1,0.8,0.5,1.6,1.1,2.1c0.6,0.5,1.4,0.8,2.3,0.8c0.8,0,1.6-0.4,2.2-1c0.6-0.6,0.9-1.4,0.9-2.2c0-1.3,0.1-2.5,0.2-3.8
		c0.2-3.4,0.3-6.8,0.5-10.2c0-0.4-0.1-0.6-0.6-0.6C255.1-175.3,254.5-175.3,253.8-175.3z M266.4-175.4h-1.7c-0.8,0-0.9,0.1-0.8,0.9
		c0.1,2.4,0.2,4.8,0.3,7.2c0.1,2.3,0.2,4.6,0.4,6.9c0.1,0.7,0.4,1.4,0.9,1.9c0.5,0.5,1.2,0.8,2,0.9c1.7,0.1,3-0.8,3.3-2.4
		c0.2-1.1,0.2-2.3,0.1-3.4c-0.6-3.8-1.3-7.5-1.9-11.2c-0.1-0.6-0.3-0.8-0.9-0.8C267.5-175.3,267-175.4,266.4-175.4z M262.7-172.4
		L262.7-172.4c0-0.7,0-1.3,0-2c0-0.7-0.1-0.8-0.8-0.8h-3.2c-1.2,0-1.2,0-1.2,1.2c-0.1,2.6-0.3,5.2-0.4,7.7c-0.1,1.9-0.2,3.9-0.2,5.8
		c0,0.7,0.3,1.4,0.8,2c0.5,0.5,1.1,0.9,1.8,1c0.7,0.2,1.5,0.1,2.1-0.3c0.6-0.3,1.2-0.9,1.5-1.5c0.4-0.9,0.2-1.8,0.2-2.7
		C263-165.5,262.9-169,262.7-172.4z M247.8-175.3c-0.5,0-1,0-1.5,0c-0.1,0-0.2,0-0.3,0c-0.1,0-0.2,0.1-0.3,0.1
		c-0.1,0.1-0.1,0.1-0.2,0.2c0,0.1-0.1,0.2-0.1,0.3c-1,3.2-2.1,6.4-3.2,9.6c-0.5,1.4-0.8,3-0.7,4.5c0,0.7,0.3,1.3,0.7,1.9
		c0.4,0.5,1,0.9,1.6,1.1c0.6,0.2,1.3,0.2,1.9,0s1.2-0.6,1.5-1.1c0.5-0.7,0.7-1.5,0.7-2.4c0.1-1.4,0.2-2.8,0.4-4.2
		c0.5-3.1,1.1-6.2,1.6-9.2c0.1-0.5-0.1-0.7-0.6-0.7C248.9-175.3,248.4-175.3,247.8-175.3z M272.3-175.3L272.3-175.3
		c-0.6,0-1.1,0-1.6,0c-0.5,0-0.7,0.2-0.6,0.7c0.3,1.5,0.5,3,0.8,4.5c0.5,3.2,1.3,6.4,1.2,9.6c0,0.7,0.3,1.4,0.8,2
		c0.5,0.5,1.1,0.9,1.8,1c0.7,0.2,1.5,0,2.2-0.3c0.7-0.4,1.2-1,1.4-1.7c0.4-1.2,0.4-2.6,0.1-3.8c-1-3.3-2.2-6.6-3.3-9.9
		c-0.2-0.6-0.3-1.5-0.7-1.8S273-175.3,272.3-175.3z M277.6-175.3h-1c-0.8,0-0.9,0.1-0.6,0.9c0.7,2.2,1.5,4.3,2.2,6.5
		c0.8,2.4,1.8,4.8,1.6,7.4c-0.1,1.6,1.3,2.9,2.8,3c0.8,0.1,1.6-0.1,2.2-0.6c0.6-0.5,1.1-1.1,1.2-1.9c0.1-0.6,0.1-1.3,0.1-1.9
		c0-0.8-0.2-1.5-0.6-2.2c-1.8-3.3-3.7-6.5-5.5-9.9C279.5-174.9,279-175.7,277.6-175.3z M242.5-175.2c-0.3,0-0.5,0-0.8,0
		c-0.3-0.1-0.5,0-0.8,0.1c-0.2,0.1-0.4,0.4-0.5,0.6c-1.8,3.2-3.5,6.5-5.4,9.7c-0.8,1.3-1.1,2.8-1,4.4c0.1,1.9,2.2,3.5,4,3
		c0.7-0.2,1.3-0.6,1.7-1.2c0.4-0.6,0.6-1.2,0.6-1.9c-0.1-1.6,0.2-3.3,0.8-4.8c0.1-0.2,0.1-0.3,0.2-0.5c0.9-2.9,1.9-5.7,2.8-8.6
		c0.3-0.8,0.2-0.9-0.7-0.9L242.5-175.2z"/>
	<path class="st1" d="M278.5-141.4h-36.8v-16.2c0.5,0.4,1.1,0.8,1.8,1s1.3,0.3,2,0.2c1.5-0.2,2.4-1,3.2-2.1c2.6,2.8,5.4,2.8,7.7,0
		c1,1.2,2.2,2,3.8,2c0.7,0,1.5-0.2,2.1-0.6c0.7-0.4,1.2-0.9,1.6-1.5c2.1,2.9,5.8,2.7,7.7,0c0.8,1,1.8,1.9,3.2,2.1
		c0.7,0.1,1.3,0,2-0.2c0.6-0.2,1.2-0.5,1.7-1L278.5-141.4z"/>
	<path class="st1" d="M260-132.9h-21.3c-0.9,0-0.9,0-0.9-0.9c0-7.2,0-14.4,0-21.6c0-0.6,0.1-0.9,0.8-1c0.4-0.1,0.8-0.3,1.1-0.5
		c0.5-0.3,0.7-0.1,0.7,0.4c0,1.8,0,3.5,0,5.3v10.3c0,0.8,0.1,0.9,0.9,0.9h37.3c0.8,0,1-0.1,1-1v-15.1c0-0.2,0-0.4,0-0.6
		c0-0.4,0.2-0.5,0.6-0.3c0.6,0.3,1.1,0.5,1.6,0.7c0.2,0.1,0.3,0.3,0.3,0.4c0,0.2,0,0.3,0,0.5v21.5c0,1,0,1-1,1L260-132.9z"/>
	<path class="st1" d="M253.8-175.3c0.7,0,1.3,0,2,0c0.4,0,0.6,0.2,0.6,0.6c-0.2,3.4-0.3,6.8-0.5,10.2c-0.1,1.3-0.1,2.5-0.2,3.8
		c0,0.8-0.3,1.6-0.9,2.2c-0.6,0.6-1.3,1-2.2,1c-0.8,0-1.6-0.2-2.3-0.8c-0.6-0.5-1-1.3-1.1-2.1c-0.1-1.6,0-3.3,0.3-4.9
		c0.5-3.1,1-6.2,1.5-9.3c0.1-0.6,0.3-0.8,0.9-0.8C252.6-175.2,253.2-175.3,253.8-175.3z"/>
	<path class="st1" d="M266.4-175.4c0.6,0,1.1,0,1.7,0s0.8,0.2,0.9,0.8c0.6,3.7,1.3,7.5,1.9,11.2c0.2,1.1,0.1,2.3-0.1,3.4
		c-0.3,1.6-1.7,2.5-3.3,2.4c-0.7-0.1-1.4-0.4-2-0.9c-0.5-0.5-0.9-1.2-0.9-1.9c-0.2-2.3-0.2-4.6-0.4-6.9c-0.1-2.4-0.2-4.8-0.3-7.2
		c0-0.8,0-0.9,0.8-0.9L266.4-175.4z"/>
	<path class="st1" d="M262.7-172.4c0.2,3.5,0.3,6.9,0.5,10.4c0,0.9,0.2,1.8-0.2,2.7c-0.3,0.7-0.8,1.2-1.5,1.5
		c-0.6,0.3-1.4,0.4-2.1,0.3c-0.7-0.1-1.4-0.5-1.8-1c-0.5-0.5-0.7-1.2-0.8-2c0-1.9,0.2-3.9,0.2-5.8c0.1-2.6,0.2-5.2,0.4-7.7
		c0.1-1.2,0.1-1.2,1.2-1.2h3.2c0.7,0,0.8,0.1,0.8,0.8C262.8-173.7,262.8-173.1,262.7-172.4L262.7-172.4z"/>
	<path class="st1" d="M247.8-175.3c0.5,0,1.1,0,1.6,0c0.5,0,0.7,0.3,0.6,0.7c-0.6,3.1-1.1,6.2-1.6,9.2c-0.2,1.4-0.3,2.8-0.4,4.2
		c0,0.8-0.2,1.7-0.7,2.4c-0.4,0.5-0.9,0.9-1.5,1.1s-1.3,0.2-1.9,0c-0.6-0.2-1.2-0.6-1.6-1.1c-0.4-0.5-0.6-1.2-0.7-1.9
		c-0.1-1.5,0.2-3.1,0.7-4.5c1.1-3.2,2.1-6.4,3.2-9.6c0-0.1,0-0.2,0.1-0.3c0-0.1,0.1-0.2,0.2-0.2c0.1-0.1,0.2-0.1,0.3-0.1
		c0.1,0,0.2,0,0.3,0C246.8-175.3,247.3-175.3,247.8-175.3z"/>
	<path class="st1" d="M272.3-175.3c0.7,0.1,1.5-0.1,2,0.2c0.5,0.3,0.5,1.2,0.7,1.8c1.1,3.3,2.2,6.6,3.3,9.9c0.4,1.3,0.4,2.6-0.1,3.8
		c-0.2,0.7-0.7,1.3-1.4,1.7c-0.7,0.4-1.4,0.5-2.2,0.3c-0.7-0.1-1.4-0.5-1.8-1s-0.7-1.2-0.8-2c0.1-3.3-0.7-6.4-1.2-9.6
		c-0.2-1.5-0.5-3-0.8-4.5c-0.1-0.5,0.1-0.7,0.6-0.7C271.3-175.3,271.8-175.3,272.3-175.3L272.3-175.3z"/>
	<path class="st1" d="M277.6-175.3c1.3-0.4,1.9,0.4,2.5,1.4c1.8,3.3,3.6,6.6,5.5,9.9c0.4,0.6,0.6,1.4,0.6,2.2c0,0.6,0,1.3-0.1,1.9
		c-0.2,0.8-0.6,1.4-1.2,1.9c-0.6,0.5-1.4,0.7-2.2,0.6c-1.5-0.2-2.9-1.4-2.8-3c0.2-2.7-0.9-5-1.6-7.4c-0.7-2.2-1.4-4.4-2.2-6.5
		c-0.3-0.8-0.2-0.9,0.6-0.9H277.6z"/>
	<path class="st1" d="M242.5-175.2h1c0.8,0,0.9,0.1,0.7,0.9c-0.9,2.9-1.9,5.7-2.8,8.6c-0.1,0.2-0.1,0.3-0.2,0.5
		c-0.6,1.5-0.9,3.1-0.8,4.8c0,0.7-0.2,1.4-0.6,1.9c-0.4,0.6-1,1-1.7,1.2c-1.8,0.6-3.9-1-4-3c-0.1-1.5,0.2-3,1-4.4
		c1.9-3.2,3.6-6.4,5.4-9.7c0.1-0.3,0.3-0.5,0.5-0.6c0.2-0.1,0.5-0.2,0.8-0.1C241.9-175.2,242.2-175.2,242.5-175.2z"/>
</g>
<g>
	<path class="st0" d="M175.8,235.5c-17.8-13.1-31.7-28.9-41.7-47.4H121c9.8,19.9,25.7,41.5,51.4,59.5l2.9,2l0.5-0.2l0.5,0.3l2.9-2
		c25.7-17.9,41.6-39.5,51.4-59.5h-13.1C207.5,206.5,193.6,222.4,175.8,235.5z"/>
	<path class="st0" d="M119,145.1c-2.9-14.9-2.9-26.8-2.7-32.1c2-0.9,5-2.2,9.7-3.7c32.1-10.6,67.5-10.6,99.6,0
		c4.7,1.5,7.7,2.8,9.7,3.7c0.2,5.3,0.2,17.2-2.6,32.1c1.6-0.2,3.2-0.4,5-0.4h7c3.6-20.7,2.2-35.3,2.1-36l-0.3-2.9l-2.5-1.5
		c-3.1-1.9-8.1-4-14.8-6.2c-34.5-11.4-72.5-11.4-107,0c-6.7,2.2-11.6,4.3-14.8,6.2l-2.5,1.5l-0.3,2.9c-0.1,0.7-1.5,15.3,2.1,36h7
		C115.7,144.8,117.4,144.9,119,145.1z"/>
	<path class="st0" d="M105.7,178v-19.6h8.5c1.8,0,3.3,0.3,4.5,0.9c1.3,0.6,2.2,1.4,2.9,2.4c0.7,1.1,1,2.3,1,3.8c0,1.5-0.3,2.7-1,3.8
		c-0.7,1.1-1.7,1.9-2.9,2.5c-1.3,0.6-2.8,0.8-4.5,0.8h-6l2-2v7.4H105.7z M110.2,171.1l-2-2.2h5.7c1.4,0,2.4-0.3,3.1-0.9
		c0.7-0.6,1-1.4,1-2.5c0-1.1-0.3-1.9-1-2.5c-0.7-0.6-1.7-0.9-3.1-0.9h-5.7l2-2.2V171.1z M125.9,178v-19.6h8.5c1.8,0,3.3,0.3,4.5,0.9
		c1.3,0.6,2.2,1.4,2.9,2.4c0.7,1.1,1,2.3,1,3.8c0,1.5-0.3,2.7-1,3.8c-0.7,1-1.7,1.8-2.9,2.4c-1.3,0.6-2.8,0.8-4.5,0.8h-6l2-2v7.4
		H125.9z M138.4,178l-4.9-7.1h4.8l5,7.1H138.4z M130.5,171.1l-2-2.1h5.7c1.4,0,2.4-0.3,3.1-0.9c0.7-0.6,1-1.5,1-2.5
		c0-1.1-0.3-1.9-1-2.5c-0.7-0.6-1.7-0.9-3.1-0.9h-5.7l2-2.2V171.1z M150.7,166.3h9.4v3.5h-9.4V166.3z M151,174.4h10.7v3.6h-15.2
		v-19.6h14.8v3.6H151V174.4z M165.3,178v-19.6h3.8l8.3,13.8h-2l8.2-13.8h3.7l0.1,19.6h-4.3l0-13.1h0.8l-6.6,11h-2l-6.7-11h1V178
		H165.3z M192,178v-19.6h4.5V178H192z M209.9,178.3c-2.8,0-5-0.8-6.5-2.3c-1.6-1.5-2.4-3.8-2.4-6.6v-11h4.5v10.8
		c0,1.9,0.4,3.2,1.1,4c0.8,0.8,1.8,1.2,3.2,1.2c1.4,0,2.5-0.4,3.2-1.2c0.8-0.8,1.1-2.2,1.1-4v-10.8h4.5v11c0,2.9-0.8,5.1-2.4,6.6
		C214.9,177.6,212.7,178.3,209.9,178.3z M223.3,178v-19.6h3.8l8.3,13.8h-2l8.2-13.8h3.7l0.1,19.6h-4.3l0-13.1h0.8l-6.6,11h-2
		l-6.7-11h1V178H223.3z"/>
</g>
<path class="st0" d="M624,581.2c-17.8-13.1-31.7-28.9-41.7-47.4h-13.1c9.8,19.9,25.7,41.5,51.4,59.5l2.9,2l0.5-0.2l0.5,0.3l2.9-2
	c25.7-17.9,41.6-39.5,51.4-59.5h-13.1C655.7,552.3,641.8,568.2,624,581.2z"/>
<path class="st0" d="M567.2,490.9c-2.9-14.9-2.9-26.8-2.7-32.1c2-0.9,5-2.2,9.7-3.7c32.1-10.6,67.5-10.6,99.6,0
	c4.7,1.5,7.7,2.8,9.7,3.7c0.2,5.3,0.2,17.2-2.6,32.1c1.6-0.2,3.2-0.4,5-0.4h7c3.6-20.7,2.2-35.3,2.1-36l-0.3-2.9l-2.5-1.5
	c-3.1-1.9-8.1-4-14.8-6.2c-34.5-11.4-72.5-11.4-107,0c-6.7,2.2-11.6,4.3-14.8,6.2l-2.5,1.5l-0.3,2.9c-0.1,0.7-1.5,15.3,2.1,36h7
	C563.9,490.5,565.6,490.7,567.2,490.9z"/>
<path class="st0" d="M548.3,522.8v-19.6h8.5c1.8,0,3.3,0.3,4.5,0.9c1.3,0.6,2.2,1.4,2.9,2.4c0.7,1.1,1,2.3,1,3.8
	c0,1.5-0.3,2.7-1,3.8c-0.7,1.1-1.7,1.9-2.9,2.5c-1.3,0.6-2.8,0.8-4.5,0.8h-6l2-2v7.4H548.3z M552.8,515.8l-2-2.2h5.7
	c1.4,0,2.4-0.3,3.1-0.9c0.7-0.6,1-1.4,1-2.5c0-1.1-0.3-1.9-1-2.5c-0.7-0.6-1.7-0.9-3.1-0.9h-5.7l2-2.2V515.8z M568.5,522.8v-19.6
	h4.5v15.9h9.8v3.7H568.5z M582.9,522.8l8.7-19.6h4.5l8.8,19.6h-4.8l-7.2-17.3h1.8l-7.2,17.3H582.9z M587.3,518.6l1.2-3.4h10.1
	l1.2,3.4H587.3z M610,522.8v-15.9h-6.3v-3.7h17.1v3.7h-6.3v15.9H610z M623.3,522.8v-19.6h4.5v19.6H623.3z M632.5,522.8v-19.6h3.8
	l11.6,14.1H646v-14.1h4.5v19.6h-3.7l-11.6-14.1h1.8v14.1H632.5z M663.8,523.1c-2.8,0-5-0.8-6.5-2.3s-2.4-3.8-2.4-6.6v-11h4.5V514
	c0,1.9,0.4,3.2,1.1,4s1.8,1.2,3.2,1.2c1.4,0,2.5-0.4,3.2-1.2s1.1-2.2,1.1-4v-10.8h4.5v11c0,2.9-0.8,5.1-2.4,6.6
	S666.6,523.1,663.8,523.1z M677.1,522.8v-19.6h3.8l8.3,13.8h-2l8.2-13.8h3.7l0.1,19.6H695l0-13.1h0.8l-6.6,11h-2l-6.7-11h1v13.1
	H677.1z"/>
<g>
	<path class="st0" d="M175.8,630.5c-17.8-13.1-31.7-28.9-41.7-47.4H121c9.8,19.9,25.7,41.5,51.4,59.5l2.9,2l0.5-0.2l0.5,0.3l2.9-2
		c25.7-17.9,41.6-39.5,51.4-59.5h-13.1C207.5,601.5,193.6,617.4,175.8,630.5z"/>
	<path class="st0" d="M119,540.2c-2.9-14.9-2.9-26.8-2.7-32.1c2-0.9,5-2.2,9.7-3.7c32.1-10.6,67.5-10.6,99.6,0
		c4.7,1.5,7.7,2.8,9.7,3.7c0.2,5.3,0.2,17.2-2.6,32.1c1.6-0.2,3.2-0.4,5-0.4h7c3.6-20.7,2.2-35.3,2.1-36l-0.3-2.9l-2.5-1.5
		c-3.1-1.9-8.1-4-14.8-6.2c-34.5-11.4-72.5-11.4-107,0c-6.7,2.2-11.6,4.3-14.8,6.2l-2.5,1.5l-0.3,2.9c-0.1,0.7-1.5,15.3,2.1,36h7
		C115.7,539.8,117.4,539.9,119,540.2z"/>
	<path class="st0" d="M132.7,571v-19.6h9.6c2.5,0,4.3,0.5,5.5,1.4c1.3,0.9,1.9,2.2,1.9,3.7c0,1-0.3,1.9-0.8,2.7
		c-0.5,0.7-1.2,1.3-2.1,1.7c-0.9,0.4-1.9,0.6-3,0.6l0.5-1.1c1.2,0,2.3,0.2,3.3,0.6c1,0.4,1.7,1,2.2,1.8c0.5,0.8,0.8,1.7,0.8,2.9
		c0,1.7-0.7,3-2,3.9c-1.3,0.9-3.3,1.4-5.9,1.4H132.7z M137.2,567.6h5.3c1.2,0,2.1-0.2,2.7-0.6c0.6-0.4,0.9-1,0.9-1.8
		c0-0.8-0.3-1.4-0.9-1.8c-0.6-0.4-1.5-0.6-2.7-0.6h-5.6v-3.3h4.8c1.1,0,1.9-0.2,2.5-0.6c0.6-0.4,0.9-1,0.9-1.8
		c0-0.8-0.3-1.3-0.9-1.7c-0.6-0.4-1.4-0.6-2.5-0.6h-4.5V567.6z M151.5,571l8.7-19.6h4.5l8.8,19.6h-4.8l-7.2-17.3h1.8l-7.2,17.3
		H151.5z M155.9,566.8l1.2-3.4h10.1l1.2,3.4H155.9z M181.9,571.4c-1.6,0-3.1-0.2-4.5-0.6c-1.4-0.4-2.6-1-3.5-1.7l1.5-3.4
		c0.8,0.6,1.8,1.1,3,1.5c1.2,0.4,2.3,0.6,3.5,0.6c0.9,0,1.6-0.1,2.2-0.3c0.6-0.2,1-0.4,1.2-0.8c0.3-0.3,0.4-0.7,0.4-1.1
		c0-0.5-0.2-0.9-0.6-1.2c-0.4-0.3-1-0.6-1.6-0.8c-0.7-0.2-1.4-0.4-2.2-0.6c-0.8-0.2-1.6-0.4-2.4-0.7c-0.8-0.3-1.5-0.6-2.2-1
		c-0.7-0.4-1.2-1-1.7-1.6c-0.4-0.7-0.6-1.5-0.6-2.6c0-1.1,0.3-2.1,0.9-3.1c0.6-0.9,1.5-1.7,2.7-2.2c1.2-0.6,2.8-0.8,4.6-0.8
		c1.2,0,2.4,0.1,3.6,0.4c1.2,0.3,2.2,0.7,3.2,1.3l-1.4,3.4c-0.9-0.5-1.8-0.9-2.7-1.1c-0.9-0.3-1.8-0.4-2.7-0.4
		c-0.9,0-1.6,0.1-2.2,0.3c-0.6,0.2-1,0.5-1.2,0.8c-0.2,0.3-0.4,0.7-0.4,1.1c0,0.5,0.2,0.9,0.6,1.2c0.4,0.3,1,0.5,1.6,0.7
		c0.7,0.2,1.4,0.4,2.2,0.6c0.8,0.2,1.6,0.4,2.4,0.6c0.8,0.2,1.6,0.6,2.2,1s1.2,1,1.6,1.6c0.4,0.7,0.6,1.5,0.6,2.5
		c0,1.1-0.3,2.1-0.9,3c-0.6,0.9-1.5,1.7-2.8,2.2C185.3,571.1,183.8,571.4,181.9,571.4z M193.4,571v-19.6h4.5V571H193.4z
		 M211.9,571.4c-1.5,0-2.9-0.2-4.2-0.7c-1.3-0.5-2.4-1.2-3.4-2.1c-1-0.9-1.7-2-2.2-3.2c-0.5-1.2-0.8-2.6-0.8-4.1
		c0-1.5,0.3-2.8,0.8-4.1c0.5-1.2,1.3-2.3,2.2-3.2c1-0.9,2.1-1.6,3.4-2.1c1.3-0.5,2.7-0.8,4.2-0.8c1.7,0,3.2,0.3,4.6,0.9
		c1.4,0.6,2.5,1.4,3.5,2.6l-2.9,2.7c-0.7-0.8-1.4-1.3-2.2-1.7c-0.8-0.4-1.7-0.6-2.7-0.6c-0.9,0-1.8,0.1-2.5,0.4
		c-0.8,0.3-1.4,0.7-2,1.3s-1,1.2-1.3,2c-0.3,0.8-0.4,1.6-0.4,2.5s0.1,1.8,0.4,2.5c0.3,0.8,0.8,1.4,1.3,2s1.2,1,2,1.3
		c0.8,0.3,1.6,0.4,2.5,0.4c1,0,1.9-0.2,2.7-0.6c0.8-0.4,1.6-1,2.2-1.8l2.9,2.7c-0.9,1.1-2.1,2-3.5,2.6
		C215.2,571.1,213.6,571.4,211.9,571.4z"/>
</g>
</svg>
