<?xml version="1.0" encoding="utf-8"?>
<!-- Generator: Adobe Illustrator 24.1.0, SVG Export Plug-In . SVG Version: 6.00 Build 0)  -->
<svg version="1.1" id="Capa_1" xmlns="http://www.w3.org/2000/svg" xmlns:xlink="http://www.w3.org/1999/xlink" x="0px" y="0px"
	 viewBox="0 0 351.6 339" style="enable-background:new 0 0 351.6 339;" xml:space="preserve">
<style type="text/css">
	.st0{fill:#FFFFFF;}
	.st1{fill:#073DAF;}
</style>
<g>
	<g id="SgtdWC_1_">
		
			<image style="overflow:visible;" width="1" height="1" id="SgtdWC_2_" xlink:href="F00129FAF456CC7C.png"  transform="matrix(1 0 0 1 175.2999 167.7932)">
		</image>
	</g>
	<path class="st1" d="M175.8,226.2c-15.3-11.2-27.3-24.9-35.9-40.8h-11.3c8.4,17.1,22.1,35.7,44.2,51.1l2.5,1.7l0.4-0.2l0.5,0.2
		l2.5-1.7c22.1-15.4,35.8-34,44.2-51.1h-11.3C203.1,201.3,191.1,215,175.8,226.2z"/>
	<path class="st1" d="M126.9,148.5c-2.5-12.8-2.5-23.1-2.3-27.6c1.7-0.8,4.3-1.9,8.3-3.2c27.6-9.1,58-9.1,85.6,0
		c4,1.3,6.6,2.4,8.3,3.2c0.2,4.6,0.2,14.8-2.3,27.6c1.3-0.2,2.8-0.3,4.3-0.3h6c3.1-17.8,1.9-30.4,1.8-31l-0.3-2.5l-2.1-1.3
		c-2.7-1.7-7-3.5-12.7-5.4c-29.7-9.8-62.3-9.8-92,0c-5.7,1.9-10,3.7-12.7,5.4l-2.1,1.3l-0.3,2.5c-0.1,0.6-1.3,13.2,1.8,31h6
		C124.1,148.2,125.6,148.3,126.9,148.5z"/>
	<path class="st1" d="M196.7,138.3c-2.2,0-4.3,0-6.5,0c-0.8,0-1.5,0.2-2.1,0.7c-1.4,1-2.9,1.8-4.6,2.2c-0.6-1.6-1.7-3-3.2-4
		c-1.4-1-3.2-1.5-4.9-1.3c-3.5,0.3-5.8,2.1-7.3,5.3c-1.6-0.5-3.1-1.2-4.5-2.2c-0.5-0.3-1.1-0.7-1.7-0.7c-2.4-0.1-4.8,0-7.2,0
		c-0.4,0-0.8,0.1-1.1,0.3c-0.3,0.2-0.6,0.5-0.8,0.8c-0.3,0.4-0.4,0.8-0.4,1.2c0,0.4,0.1,0.9,0.3,1.3c0.5,0.9,1.3,1.3,2.3,1.3
		c1.9,0,3.7,0,5.6,0c0.3,0,0.5,0.1,0.7,0.2c1.9,1.3,4,2.2,6.3,2.7c0.2,0,0.3,0.1,0.4,0.3c0.4,0.9,0.9,1.8,1.3,2.8
		c-0.1,0.1-0.3,0.2-0.5,0.3c-4.2,2.7-6.5,6.5-6.6,11.4c-0.1,5.3,0,10.5,0,15.8c0,2.4,2.1,4.8,5.5,4.2c0-0.2,0-0.5,0-0.8
		c0-2.7-0.1-5.4,0.1-8.1c0.3-4.2,4.4-7.9,9.3-7.1c4.3,0.7,7,4,7,8.3c0,2.3,0,4.7,0,7c0,0.2,0,0.4,0,0.7h0.8c3,0,4.7-1.7,4.7-4.7
		c0-5,0-9.9,0-14.9c0-4.4-1.7-8.1-5.2-10.9c-0.7-0.5-1.4-1-2-1.4c0.4-0.8,0.8-1.6,1.1-2.4c0-0.2,0.2-0.4,0.3-0.5
		c0.1-0.1,0.3-0.2,0.5-0.2c2.1-0.5,4-1.3,5.8-2.5c0.3-0.2,0.7-0.3,1.1-0.3c1.8,0,3.6,0,5.4,0c1.6,0,2.6-1,2.6-2.5
		C199.4,139.4,198.3,138.3,196.7,138.3z M176,148.7c-1.2,0-2.4-0.5-3.2-1.3c-0.8-0.9-1.3-2-1.3-3.2c0-0.6,0.1-1.2,0.3-1.7
		c0.2-0.5,0.6-1,1-1.5c0.4-0.4,0.9-0.7,1.5-1c0.5-0.2,1.1-0.3,1.7-0.3c0.6,0,1.2,0.1,1.7,0.3c0.6,0.2,1.1,0.6,1.5,1
		c0.4,0.4,0.8,0.9,1,1.5c0.2,0.6,0.3,1.1,0.3,1.7c0,0.6-0.1,1.2-0.3,1.7c-0.2,0.6-0.6,1.1-1,1.5c-0.4,0.4-0.9,0.8-1.5,1
		C177.1,148.6,176.6,148.7,176,148.7z"/>
	<path class="st1" d="M171.4,179.5c0-2.2-0.1-4.4,0-6.5c0.1-3.5,4.1-5.4,6.9-3.5c1.2,0.8,2,2,2,3.5c0,4.4,0.1,8.8,0,13.3
		c0,2.3-2.1,4.2-4.5,4.2c-2.4,0-4.4-1.9-4.5-4.2C171.4,184,171.4,181.8,171.4,179.5z"/>
</g>
</svg>
