<?xml version="1.0" encoding="utf-8"?>
<!-- Generator: Adobe Illustrator 24.1.0, SVG Export Plug-In . SVG Version: 6.00 Build 0)  -->
<svg version="1.1" id="Capa_1" xmlns="http://www.w3.org/2000/svg" xmlns:xlink="http://www.w3.org/1999/xlink" x="0px" y="0px"
	 viewBox="0 0 351.6 339" style="enable-background:new 0 0 351.6 339;" xml:space="preserve">
<style type="text/css">
	.st0{fill:#FFFFFF;}
	.st1{fill:#073DAF;}
</style>
<g>
	<path class="st0" d="M176.1,235.5c-17.8-13.1-31.7-28.9-41.7-47.4h-13.1c9.8,19.9,25.7,41.5,51.4,59.5l2.9,2l0.5-0.2l0.5,0.3l2.9-2
		c25.7-17.9,41.6-39.5,51.4-59.5h-13.1C207.8,206.5,193.8,222.4,176.1,235.5z"/>
	<path class="st0" d="M119.2,145.1c-2.9-14.9-2.9-26.8-2.7-32.1c2-0.9,5-2.2,9.7-3.7c32.1-10.6,67.5-10.6,99.6,0
		c4.7,1.5,7.7,2.8,9.7,3.7c0.2,5.3,0.2,17.2-2.6,32.1c1.6-0.2,3.2-0.4,5-0.4h7c3.6-20.7,2.2-35.3,2.1-36l-0.3-2.9l-2.5-1.5
		c-3.1-1.9-8.1-4-14.8-6.2c-34.5-11.4-72.5-11.4-107,0c-6.7,2.2-11.6,4.3-14.8,6.2l-2.5,1.5l-0.3,2.9c-0.1,0.7-1.5,15.3,2.1,36h7
		C116,144.8,117.7,144.9,119.2,145.1z"/>
	<path class="st0" d="M100.3,177v-19.6h8.5c1.8,0,3.3,0.3,4.5,0.9c1.3,0.6,2.2,1.4,2.9,2.4c0.7,1.1,1,2.3,1,3.8c0,1.5-0.3,2.7-1,3.8
		c-0.7,1.1-1.7,1.9-2.9,2.5c-1.3,0.6-2.8,0.8-4.5,0.8h-6l2-2v7.4H100.3z M104.9,170.1l-2-2.2h5.7c1.4,0,2.4-0.3,3.1-0.9
		c0.7-0.6,1-1.4,1-2.5c0-1.1-0.3-1.9-1-2.5c-0.7-0.6-1.7-0.9-3.1-0.9h-5.7l2-2.2V170.1z M120.6,177v-19.6h4.5v15.9h9.8v3.7H120.6z
		 M135,177l8.7-19.6h4.5L157,177h-4.8l-7.2-17.3h1.8l-7.2,17.3H135z M139.4,172.8l1.2-3.4h10.1l1.2,3.4H139.4z M162.1,177v-15.9
		h-6.3v-3.7h17.1v3.7h-6.3V177H162.1z M175.3,177v-19.6h4.5V177H175.3z M184.5,177v-19.6h3.8l11.6,14.1H198v-14.1h4.5V177h-3.7
		l-11.6-14.1h1.8V177H184.5z M215.8,177.3c-2.8,0-5-0.8-6.5-2.3s-2.4-3.8-2.4-6.6v-11h4.5v10.8c0,1.9,0.4,3.2,1.1,4s1.8,1.2,3.2,1.2
		s2.5-0.4,3.2-1.2s1.1-2.2,1.1-4v-10.8h4.5v11c0,2.9-0.8,5.1-2.4,6.6C220.8,176.6,218.6,177.3,215.8,177.3z M229.2,177v-19.6h3.8
		l8.3,13.8h-2l8.2-13.8h3.7l0.1,19.6H247l0-13.1h0.8l-6.6,11h-2l-6.7-11h1V177H229.2z"/>
</g>
</svg>
