<?xml version="1.0" encoding="utf-8"?>
<!-- Generator: Adobe Illustrator 24.1.0, SVG Export Plug-In . SVG Version: 6.00 Build 0)  -->
<svg version="1.1" id="Capa_1" xmlns="http://www.w3.org/2000/svg" xmlns:xlink="http://www.w3.org/1999/xlink" x="0px" y="0px"
	 viewBox="0 0 351.6 339" style="enable-background:new 0 0 351.6 339;" xml:space="preserve">
<style type="text/css">
	.st0{fill:#FFFFFF;}
	.st1{fill:#073DAF;}
</style>
<g>
	<path class="st1" d="M175.8,226.2c-15.3-11.2-27.3-24.9-35.9-40.8h-11.3c8.4,17.1,22.1,35.7,44.2,51.1l2.5,1.7l0.4-0.2l0.5,0.2
		l2.5-1.7c22.1-15.4,35.8-34,44.2-51.1h-11.3C203.1,201.3,191.1,215,175.8,226.2z"/>
	<path class="st1" d="M126.9,148.5c-2.5-12.8-2.5-23.1-2.3-27.6c1.7-0.8,4.3-1.9,8.3-3.2c27.6-9.1,58-9.1,85.6,0
		c4,1.3,6.6,2.4,8.3,3.2c0.2,4.6,0.2,14.8-2.3,27.6c1.3-0.2,2.8-0.3,4.3-0.3h6c3.1-17.8,1.9-30.4,1.8-31l-0.3-2.5l-2.1-1.3
		c-2.7-1.7-7-3.5-12.7-5.4c-29.7-9.8-62.3-9.8-92,0c-5.7,1.9-10,3.7-12.7,5.4l-2.1,1.3l-0.3,2.5c-0.1,0.6-1.3,13.2,1.8,31h6
		C124.1,148.2,125.6,148.3,126.9,148.5z"/>
	<path class="st1" d="M207.7,166.7c-0.5-6.3-6.2-11.3-12.7-11.3h-0.2c-0.9,0-1.9,0.2-2.8,0.4l-0.9,0.2l-0.4-0.9c-0.5-1-1-2-1.6-3.1
		c-0.1-0.2-0.2-0.4-0.3-0.6c-0.2-0.3-0.4-0.7-0.5-1c-0.1-1.4-0.1-2.7-0.1-4.2c0-0.4,0-0.8,0-1.1h0.7c0.3,0,0.6,0,0.9-0.1
		c0.3-0.1,0.6-0.3,0.8-0.5c0.2-0.2,0.3-0.4,0.4-0.6c0.1-0.2,0.1-0.5,0.1-0.7c0-1.1-0.8-1.8-2.1-1.8c-2.4,0-4.7,0-7,0
		c-1.3,0-2.2,0.7-2.2,1.9s0.9,1.9,2.2,1.9c0.7,0,1.4,0,2.1,0h0.4v4h-21.8l0.2-0.7c0.4-1.5,0.8-3,1.3-4.5c0.1-0.1,0.2-0.1,0.3-0.2
		c0.7,0,1.4,0,2.1,0h1.2c1.3,0,2.1-0.7,2.2-1.8c0-0.2,0-0.5-0.1-0.7c-0.1-0.2-0.2-0.4-0.4-0.6c-0.2-0.2-0.5-0.4-0.8-0.5
		c-0.3-0.1-0.6-0.1-0.9-0.1c-0.8,0-1.5,0-2.3,0c-0.8,0-1.6,0-2.5,0c-1.2,0-1.9,0.6-2.2,1.7c-0.3,1.3-0.7,2.6-1.1,3.9l-0.5,1.7
		l-2.3,8.2c-7.7-0.7-12.9,4.6-14,10c-0.6,3-0.1,6,1.4,8.7c1.5,2.6,3.9,4.6,6.8,5.7c2.9,1,6,1,8.8-0.1c2.8-1.1,5.2-3.2,6.6-5.8
		c1.5-2.6,1.9-5.7,1.2-8.6c-0.9-4-3.3-7-7.2-8.8l0.5-1.8l0.1,0.1l3.3,3.5c3.3,3.5,6.7,7.1,10.1,10.6c0.3,0.3,0.7,0.6,1.1,0.8
		c0.4,0.2,0.9,0.3,1.3,0.2c0.8,0,1.7,0,2.5,0c0.9,0,1.9,0,2.9,0c0.3,0,0.4,0,0.4,0.4c1,5.9,6.4,10.3,12.4,10.3c0.6,0,1.2,0,1.8-0.1
		c3.2-0.5,6.2-2.2,8.2-4.7C207.1,173.2,208,170,207.7,166.7L207.7,166.7z M189.7,169.9h1.5c1.2,0,2.4,0,3.5,0c0.9,0,1.6-0.3,1.9-0.9
		c0.3-0.6,0.3-1.3-0.1-2.1c-0.8-1.6-1.6-3.2-2.4-4.7l-1.2-2.4c0-0.1-0.1-0.2-0.1-0.3c2.4-0.8,6.1-0.2,8.5,2.3c1.3,1.3,2.2,3.1,2.5,5
		c0.3,1.9-0.1,3.8-1,5.5c-0.9,1.6-2.3,3-4,3.8c-1.7,0.8-3.6,1.1-5.5,0.7c-1.7-0.3-3.3-1.1-4.6-2.4c-1.3-1.2-2.1-2.8-2.5-4.5
		L189.7,169.9z M186.3,154.8l1.4,2.8c-0.3,0.3-0.6,0.7-0.9,1c-0.9,0.9-1.7,1.9-2.4,2.9c-0.6,1.1-1.1,2.2-1.5,3.4
		c-0.1,0.4-0.3,0.8-0.5,1.2h-2.8L186.3,154.8z M192,166.1h-5.6c0.4-2,1.5-3.7,3.1-5L192,166.1z M183.1,152.9l-7.1,12l-11.4-12H183.1
		z M155.1,159.2c0.2,0,0.5,0,0.7,0l-0.3,0.9c-0.3,1.2-0.7,2.4-1,3.6c-0.1,0.5-0.3,0.9-0.4,1.4c-0.2,0.7-0.4,1.4-0.6,2
		c-0.3,1.3,0.1,2.2,1.2,2.5c0.2,0.1,0.5,0.1,0.7,0.1c0.2,0,0.5-0.1,0.7-0.2c0.3-0.2,0.5-0.4,0.7-0.6c0.2-0.2,0.3-0.5,0.4-0.8
		c0.5-1.7,0.9-3.3,1.4-5c0.3-1,0.6-2,0.8-3c3.7,1.6,5.7,6.4,4.4,10.5c-0.7,2.1-2.2,3.9-4.2,5c-2,1.1-4.4,1.4-6.6,0.8
		c-2.2-0.6-4.1-2-5.3-4c-1.2-2-1.6-4.3-1-6.5C147.6,162,151.3,159.2,155.1,159.2L155.1,159.2z"/>
</g>
</svg>
