<?xml version="1.0" encoding="utf-8"?>
<!-- Generator: Adobe Illustrator 24.1.0, SVG Export Plug-In . SVG Version: 6.00 Build 0)  -->
<svg version="1.1" id="Capa_1" xmlns="http://www.w3.org/2000/svg" xmlns:xlink="http://www.w3.org/1999/xlink" x="0px" y="0px"
	 viewBox="0 0 351.6 339" style="enable-background:new 0 0 351.6 339;" xml:space="preserve">
<style type="text/css">
	.st0{fill:#FFFFFF;}
	.st1{fill:#073DAF;}
</style>
<g>
	<path class="st1" d="M175.8,226.9c-15.5-11.4-27.6-25.2-36.3-41.2h-11.4c8.5,17.3,22.3,36.1,44.7,51.7l2.5,1.7l0.4-0.2l0.5,0.2
		l2.5-1.8c22.4-15.6,36.2-34.4,44.7-51.7h-11.4C203.4,201.7,191.3,215.5,175.8,226.9z"/>
	<path class="st1" d="M126.4,148.3c-2.5-13-2.5-23.3-2.3-28c1.7-0.8,4.4-1.9,8.4-3.2c27.9-9.2,58.7-9.2,86.6,0
		c4.1,1.3,6.7,2.4,8.4,3.2c0.2,4.6,0.2,15-2.3,27.9c1.4-0.2,2.8-0.3,4.4-0.3h6.1c3.2-18,1.9-30.7,1.9-31.3l-0.3-2.5l-2.1-1.3
		c-2.7-1.7-7-3.5-12.8-5.4c-30-9.9-63-9.9-93.1,0c-5.8,1.9-10.1,3.7-12.8,5.4l-2.1,1.3l-0.3,2.5c-0.1,0.6-1.3,13.3,1.9,31.3h6.1
		C123.5,148,125,148.1,126.4,148.3z"/>
	<path class="st1" d="M175.8,182.2H197c1,0,1,0,1-1v-21.5c0-0.2,0-0.3,0-0.5c-0.1-0.2-0.2-0.3-0.3-0.4c-0.5-0.3-1.1-0.5-1.6-0.7
		c-0.4-0.2-0.6-0.1-0.6,0.3c0,0.2,0,0.4,0,0.6V174c0,0.8-0.1,1-1,1h-37.3c-0.8,0-0.9-0.1-0.9-0.9v-10.3c0-1.8,0-3.5,0-5.3
		c0-0.6-0.2-0.7-0.7-0.4c-0.3,0.2-0.7,0.4-1.1,0.5c-0.6,0.1-0.8,0.4-0.8,1c0,7.2,0,14.4,0,21.6c0,0.9,0,0.9,0.9,0.9H175.8z
		 M169.6,139.8c-0.6,0-1.2,0-1.8,0c-0.6,0-0.8,0.2-0.9,0.8c-0.5,3.1-1,6.2-1.5,9.3c-0.3,1.6-0.4,3.3-0.3,4.9
		c0.1,0.8,0.5,1.6,1.1,2.1c0.6,0.5,1.4,0.8,2.3,0.8c0.8,0,1.6-0.4,2.2-1c0.6-0.6,0.9-1.4,0.9-2.2c0-1.3,0.1-2.5,0.2-3.8
		c0.2-3.4,0.3-6.8,0.5-10.2c0-0.4-0.1-0.6-0.6-0.6C170.9,139.8,170.2,139.8,169.6,139.8z M182.2,139.7h-1.7c-0.8,0-0.9,0.1-0.8,0.9
		c0.1,2.4,0.2,4.8,0.3,7.2c0.1,2.3,0.2,4.6,0.4,6.9c0.1,0.7,0.4,1.4,0.9,1.9c0.5,0.5,1.2,0.8,2,0.9c1.7,0.1,3-0.8,3.3-2.4
		c0.2-1.1,0.2-2.3,0.1-3.4c-0.6-3.8-1.3-7.5-1.9-11.2c-0.1-0.6-0.3-0.8-0.9-0.8C183.3,139.7,182.7,139.7,182.2,139.7z M178.5,142.7
		L178.5,142.7c0-0.7,0-1.3,0-2c0-0.7-0.1-0.8-0.8-0.8h-3.2c-1.2,0-1.2,0-1.2,1.2c-0.1,2.6-0.3,5.2-0.4,7.7c-0.1,1.9-0.2,3.9-0.2,5.8
		c0,0.7,0.3,1.4,0.8,2c0.5,0.5,1.1,0.9,1.8,1c0.7,0.2,1.5,0.1,2.1-0.3c0.6-0.3,1.2-0.9,1.5-1.5c0.4-0.9,0.2-1.8,0.2-2.7
		C178.8,149.6,178.7,146.1,178.5,142.7z M163.6,139.8c-0.5,0-1,0-1.5,0c-0.1,0-0.2,0-0.3,0c-0.1,0-0.2,0.1-0.3,0.1
		c-0.1,0.1-0.1,0.1-0.2,0.2c0,0.1-0.1,0.2-0.1,0.3c-1,3.2-2.1,6.4-3.2,9.6c-0.5,1.4-0.8,3-0.7,4.5c0,0.7,0.3,1.3,0.7,1.9
		c0.4,0.5,1,0.9,1.6,1.1c0.6,0.2,1.3,0.2,1.9,0s1.2-0.6,1.5-1.1c0.5-0.7,0.7-1.5,0.7-2.4c0.1-1.4,0.2-2.8,0.4-4.2
		c0.5-3.1,1.1-6.2,1.6-9.2c0.1-0.5-0.1-0.7-0.6-0.7C164.7,139.8,164.1,139.8,163.6,139.8z M188.1,139.8L188.1,139.8
		c-0.6,0-1.1,0-1.6,0c-0.5,0-0.7,0.2-0.6,0.7c0.3,1.5,0.5,3,0.8,4.5c0.5,3.2,1.3,6.4,1.2,9.6c0,0.7,0.3,1.4,0.8,2
		c0.5,0.5,1.1,0.9,1.8,1c0.7,0.2,1.5,0,2.2-0.3c0.7-0.4,1.2-1,1.4-1.7c0.4-1.2,0.4-2.6,0.1-3.8c-1-3.3-2.2-6.6-3.3-9.9
		c-0.2-0.6-0.3-1.5-0.7-1.8C189.7,139.7,188.8,139.8,188.1,139.8z M193.4,139.8h-1c-0.8,0-0.9,0.1-0.6,0.9c0.7,2.2,1.5,4.3,2.2,6.5
		c0.8,2.4,1.8,4.8,1.6,7.4c-0.1,1.6,1.3,2.9,2.8,3c0.8,0.1,1.6-0.1,2.2-0.6c0.6-0.5,1.1-1.1,1.2-1.9c0.1-0.6,0.1-1.3,0.1-1.9
		c0-0.8-0.2-1.5-0.6-2.2c-1.8-3.3-3.7-6.5-5.5-9.9C195.3,140.2,194.8,139.4,193.4,139.8z M158.2,139.9c-0.3,0-0.5,0-0.8,0
		c-0.3-0.1-0.5,0-0.8,0.1c-0.2,0.1-0.4,0.4-0.5,0.6c-1.8,3.2-3.5,6.5-5.4,9.7c-0.8,1.3-1.1,2.8-1,4.4c0.1,1.9,2.2,3.5,4,3
		c0.7-0.2,1.3-0.6,1.7-1.2c0.4-0.6,0.6-1.2,0.6-1.9c-0.1-1.6,0.2-3.3,0.8-4.8c0.1-0.2,0.1-0.3,0.2-0.5c0.9-2.9,1.9-5.7,2.8-8.6
		c0.3-0.8,0.2-0.9-0.7-0.9L158.2,139.9z"/>
	<path class="st1" d="M194.3,173.7h-36.8v-16.2c0.5,0.4,1.1,0.8,1.8,1c0.6,0.2,1.3,0.3,2,0.2c1.5-0.2,2.4-1,3.2-2.1
		c2.6,2.8,5.4,2.8,7.7,0c1,1.2,2.2,2,3.8,2c0.7,0,1.5-0.2,2.1-0.6c0.7-0.4,1.2-0.9,1.6-1.5c2.1,2.9,5.8,2.7,7.7,0
		c0.8,1,1.8,1.9,3.2,2.1c0.7,0.1,1.3,0,2-0.2c0.6-0.2,1.2-0.5,1.7-1L194.3,173.7z"/>
	<path class="st1" d="M175.8,182.2h-21.3c-0.9,0-0.9,0-0.9-0.9c0-7.2,0-14.4,0-21.6c0-0.6,0.1-0.9,0.8-1c0.4-0.1,0.8-0.3,1.1-0.5
		c0.5-0.3,0.7-0.1,0.7,0.4c0,1.8,0,3.5,0,5.3V174c0,0.8,0.1,0.9,0.9,0.9h37.3c0.8,0,1-0.1,1-1v-15.1c0-0.2,0-0.4,0-0.6
		c0-0.4,0.2-0.5,0.6-0.3c0.6,0.3,1.1,0.5,1.6,0.7c0.2,0.1,0.3,0.3,0.3,0.4c0,0.2,0,0.3,0,0.5v21.5c0,1,0,1-1,1L175.8,182.2z"/>
	<path class="st1" d="M169.6,139.8c0.7,0,1.3,0,2,0c0.4,0,0.6,0.2,0.6,0.6c-0.2,3.4-0.3,6.8-0.5,10.2c-0.1,1.3-0.1,2.5-0.2,3.8
		c0,0.8-0.3,1.6-0.9,2.2c-0.6,0.6-1.3,1-2.2,1c-0.8,0-1.6-0.2-2.3-0.8c-0.6-0.5-1-1.3-1.1-2.1c-0.1-1.6,0-3.3,0.3-4.9
		c0.5-3.1,1-6.2,1.5-9.3c0.1-0.6,0.3-0.8,0.9-0.8C168.4,139.8,169,139.8,169.6,139.8z"/>
	<path class="st1" d="M182.2,139.7c0.6,0,1.1,0,1.7,0s0.8,0.2,0.9,0.8c0.6,3.7,1.3,7.5,1.9,11.2c0.2,1.1,0.1,2.3-0.1,3.4
		c-0.3,1.6-1.7,2.5-3.3,2.4c-0.7-0.1-1.4-0.4-2-0.9c-0.5-0.5-0.9-1.2-0.9-1.9c-0.2-2.3-0.2-4.6-0.4-6.9c-0.1-2.4-0.2-4.8-0.3-7.2
		c0-0.8,0-0.9,0.8-0.9L182.2,139.7z"/>
	<path class="st1" d="M178.5,142.7c0.2,3.5,0.3,6.9,0.5,10.4c0,0.9,0.2,1.8-0.2,2.7c-0.3,0.7-0.8,1.2-1.5,1.5
		c-0.6,0.3-1.4,0.4-2.1,0.3c-0.7-0.1-1.4-0.5-1.8-1c-0.5-0.5-0.7-1.2-0.8-2c0-1.9,0.2-3.9,0.2-5.8c0.1-2.6,0.2-5.2,0.4-7.7
		c0.1-1.2,0.1-1.2,1.2-1.2h3.2c0.7,0,0.8,0.1,0.8,0.8C178.5,141.4,178.5,142,178.5,142.7L178.5,142.7z"/>
	<path class="st1" d="M163.6,139.8c0.5,0,1.1,0,1.6,0c0.5,0,0.7,0.3,0.6,0.7c-0.6,3.1-1.1,6.2-1.6,9.2c-0.2,1.4-0.3,2.8-0.4,4.2
		c0,0.8-0.2,1.7-0.7,2.4c-0.4,0.5-0.9,0.9-1.5,1.1s-1.3,0.2-1.9,0c-0.6-0.2-1.2-0.6-1.6-1.1c-0.4-0.5-0.6-1.2-0.7-1.9
		c-0.1-1.5,0.2-3.1,0.7-4.5c1.1-3.2,2.1-6.4,3.2-9.6c0-0.1,0-0.2,0.1-0.3c0-0.1,0.1-0.2,0.2-0.2c0.1-0.1,0.2-0.1,0.3-0.1
		c0.1,0,0.2,0,0.3,0C162.6,139.8,163.1,139.8,163.6,139.8z"/>
	<path class="st1" d="M188.1,139.8c0.7,0.1,1.5-0.1,2,0.2c0.5,0.3,0.5,1.2,0.7,1.8c1.1,3.3,2.2,6.6,3.3,9.9c0.4,1.3,0.4,2.6-0.1,3.8
		c-0.2,0.7-0.7,1.3-1.4,1.7c-0.7,0.4-1.4,0.5-2.2,0.3c-0.7-0.1-1.4-0.5-1.8-1c-0.5-0.5-0.7-1.2-0.8-2c0.1-3.3-0.7-6.4-1.2-9.6
		c-0.2-1.5-0.5-3-0.8-4.5c-0.1-0.5,0.1-0.7,0.6-0.7C187,139.8,187.6,139.8,188.1,139.8L188.1,139.8z"/>
	<path class="st1" d="M193.4,139.8c1.3-0.4,1.9,0.4,2.5,1.4c1.8,3.3,3.6,6.6,5.5,9.9c0.4,0.6,0.6,1.4,0.6,2.2c0,0.6,0,1.3-0.1,1.9
		c-0.2,0.8-0.6,1.4-1.2,1.9c-0.6,0.5-1.4,0.7-2.2,0.6c-1.5-0.2-2.9-1.4-2.8-3c0.2-2.7-0.9-5-1.6-7.4c-0.7-2.2-1.4-4.4-2.2-6.5
		c-0.3-0.8-0.2-0.9,0.6-0.9H193.4z"/>
	<path class="st1" d="M158.3,139.9h1c0.8,0,0.9,0.1,0.7,0.9c-0.9,2.9-1.9,5.7-2.8,8.6c-0.1,0.2-0.1,0.3-0.2,0.5
		c-0.6,1.5-0.9,3.1-0.8,4.8c0,0.7-0.2,1.4-0.6,1.9c-0.4,0.6-1,1-1.7,1.2c-1.8,0.6-3.9-1-4-3c-0.1-1.5,0.2-3,1-4.4
		c1.9-3.2,3.6-6.4,5.4-9.7c0.1-0.3,0.3-0.5,0.5-0.6c0.2-0.1,0.5-0.2,0.8-0.1C157.7,139.9,158,139.9,158.3,139.9z"/>
</g>
</svg>
