<?xml version="1.0" encoding="utf-8"?>
<!-- Generator: Adobe Illustrator 24.1.0, SVG Export Plug-In . SVG Version: 6.00 Build 0)  -->
<svg version="1.1" id="Capa_1" xmlns="http://www.w3.org/2000/svg" xmlns:xlink="http://www.w3.org/1999/xlink" x="0px" y="0px"
	 viewBox="0 0 351.6 339" style="enable-background:new 0 0 351.6 339;" xml:space="preserve">
<style type="text/css">
	.st0{fill:#FFFFFF;}
	.st1{fill:#073DAF;}
</style>
<g>
	<path class="st1" d="M175.8,226.9c-15.5-11.4-27.6-25.2-36.3-41.2h-11.4c8.5,17.3,22.3,36.1,44.7,51.7l2.5,1.7l0.4-0.2l0.5,0.2
		l2.5-1.8c22.4-15.6,36.2-34.4,44.7-51.7h-11.4C203.4,201.7,191.3,215.5,175.8,226.9z"/>
	<path class="st1" d="M126.4,148.3c-2.5-13-2.5-23.3-2.3-28c1.7-0.8,4.4-1.9,8.4-3.2c27.9-9.2,58.7-9.2,86.6,0
		c4.1,1.3,6.7,2.4,8.4,3.2c0.2,4.6,0.2,15-2.3,27.9c1.4-0.2,2.8-0.3,4.4-0.3h6.1c3.2-18,1.9-30.7,1.9-31.3l-0.3-2.5l-2.1-1.3
		c-2.7-1.7-7-3.5-12.8-5.4c-30-9.9-63-9.9-93.1,0c-5.8,1.9-10.1,3.7-12.8,5.4l-2.1,1.3l-0.3,2.5c-0.1,0.6-1.3,13.3,1.9,31.3h6.1
		C123.5,148,125,148.1,126.4,148.3z"/>
	<path class="st1" d="M193,164.5v17.5h-12V166h-10.3v15.9h-11.9v-17.4c-0.5,0.2-1,0.4-1.5,0.5c-1.1,0.2-2.1-0.1-3-0.7
		c-0.9-0.6-1.5-1.5-1.8-2.5c-0.2-0.6-0.2-1.3-0.1-2c0.2-0.6,0.5-1.2,0.9-1.7c1.2-1.3,2.4-2.5,3.6-3.7c5.2-5.3,10.4-10.5,15.7-15.8
		c1.9-1.9,4.5-1.9,6.4,0c6.3,6.3,12.6,12.6,19,19c0.9,0.9,1.5,1.8,1.5,3.2c0,2.8-3.4,5.5-6.2,3.8C193.2,164.5,193.1,164.5,193,164.5
		z"/>
</g>
</svg>
