<?xml version="1.0" encoding="utf-8"?>
<!-- Generator: Adobe Illustrator 24.1.0, SVG Export Plug-In . SVG Version: 6.00 Build 0)  -->
<svg version="1.1" id="Capa_1" xmlns="http://www.w3.org/2000/svg" xmlns:xlink="http://www.w3.org/1999/xlink" x="0px" y="0px"
	 viewBox="0 0 351.6 339" style="enable-background:new 0 0 351.6 339;" xml:space="preserve">
<style type="text/css">
	.st0{fill:#FFFFFF;}
	.st1{fill:#073DAF;}
</style>
<g>
	<path class="st1" d="M175.8,226.2c-15.3-11.2-27.3-24.9-35.9-40.8h-11.3c8.4,17.1,22.1,35.7,44.2,51.1l2.5,1.7l0.4-0.2l0.5,0.2
		l2.5-1.7c22.1-15.4,35.8-34,44.2-51.1h-11.3C203.1,201.3,191.1,215,175.8,226.2z"/>
	<path class="st1" d="M126.9,148.5c-2.5-12.8-2.5-23.1-2.3-27.6c1.7-0.8,4.3-1.9,8.3-3.2c27.6-9.1,58-9.1,85.6,0
		c4,1.3,6.6,2.4,8.3,3.2c0.2,4.6,0.2,14.8-2.3,27.6c1.3-0.2,2.8-0.3,4.3-0.3h6c3.1-17.8,1.9-30.4,1.8-31l-0.3-2.5l-2.1-1.3
		c-2.7-1.7-7-3.5-12.7-5.4c-29.7-9.8-62.3-9.8-92,0c-5.7,1.9-10,3.7-12.7,5.4l-2.1,1.3l-0.3,2.5c-0.1,0.6-1.3,13.2,1.8,31h6
		C124.1,148.2,125.6,148.3,126.9,148.5z"/>
	<path class="st1" d="M201.4,155.1c-0.1-0.2-0.2-0.3-0.4-0.5c-0.2-0.1-0.4-0.2-0.6-0.1c-1.4,0-2.8,0-4.2,0c-0.1,0-0.3,0-0.4-0.1
		s-0.2-0.2-0.2-0.3c-0.9-2.1-1.7-4.2-2.8-6.2c-1.3-2.5-3.2-4.2-6.4-4.1c-7.1,0.1-14.2,0-21.3,0c-0.5,0-1.1,0-1.6,0.1
		c-2.3,0.4-3.7,1.9-4.6,3.8c-1.1,2.1-2,4.3-2.9,6.4c0,0.1-0.1,0.3-0.3,0.4c-0.1,0.1-0.3,0.1-0.5,0.1c-1.4,0-2.7,0-4.1,0
		c-0.2,0-0.4,0-0.6,0.2c-0.2,0.1-0.3,0.3-0.4,0.5c-0.1,0.3-0.2,0.6-0.2,0.9c0,0.3,0.1,0.6,0.2,0.9c0.1,0.3,0.3,0.5,0.6,0.8
		c0.2,0.2,0.5,0.4,0.8,0.5c0.7,0.2,1.5,0.4,2.2,0.6c-0.5,1.2-1,2.5-1.5,3.7c-0.1,0.2-0.2,0.5-0.2,0.7c0,5.2,0,10.4,0.1,15.5
		c0,0.2,0,0.5,0.1,0.7c0.1,0.2,0.2,0.4,0.4,0.6c0.2,0.2,0.4,0.3,0.6,0.4c0.2,0.1,0.5,0.1,0.7,0.2c2.4,0,4.8,0,7.1,0
		c0.4,0,0.9-0.2,1.2-0.5c0.3-0.3,0.5-0.7,0.6-1.1c0.1-1.3,0.1-2.6,0.1-3.9v-0.7h25.8c0,1.4,0,2.8,0,4.2c0,1.2,0.8,2,2,2
		c2.3,0,4.5,0,6.8,0c0.3,0,0.5,0,0.8-0.1s0.5-0.2,0.7-0.4c0.2-0.2,0.3-0.4,0.4-0.7c0.1-0.2,0.1-0.5,0.1-0.8c0-5.1,0.1-10.2,0.1-15.3
		c0-0.3-0.1-0.6-0.2-0.8c-0.5-1.2-1.1-2.5-1.6-3.7c0.8-0.2,1.6-0.4,2.4-0.7c0.3-0.1,0.5-0.3,0.7-0.5c0.2-0.2,0.4-0.5,0.5-0.8
		c0.1-0.3,0.1-0.6,0.1-0.9C201.6,155.6,201.6,155.3,201.4,155.1L201.4,155.1z M159.5,169.6c-0.4,0-0.9-0.1-1.2-0.2
		c-0.4-0.2-0.8-0.4-1.1-0.7c-0.3-0.3-0.5-0.6-0.7-1c-0.2-0.4-0.2-0.8-0.2-1.2c0-0.4,0.1-0.8,0.2-1.2c0.2-0.4,0.4-0.7,0.7-1
		c0.3-0.3,0.7-0.5,1.1-0.7c0.4-0.2,0.8-0.2,1.3-0.3c0.9,0,1.7,0.4,2.3,0.9c0.6,0.6,1,1.4,1,2.2c0,0.4-0.1,0.8-0.2,1.2
		c-0.2,0.4-0.4,0.7-0.7,1c-0.3,0.3-0.7,0.5-1.1,0.7C160.4,169.5,159.9,169.6,159.5,169.6L159.5,169.6z M158.6,156.8
		c0-0.1,0.1-0.3,0.1-0.4c1-2.1,2-4.3,3-6.4c0.3-0.5,0.6-1,0.9-1.4c0.3-0.4,0.7-0.7,1.2-1c0.5-0.2,1-0.3,1.5-0.3c7,0,14,0,21,0
		c0.5,0,1,0.1,1.4,0.3c0.4,0.2,0.8,0.5,1.1,0.9c0.4,0.5,0.8,1.1,1.1,1.7c1,2.1,2,4.2,2.9,6.2c0.1,0.1,0.1,0.3,0.2,0.4L158.6,156.8z
		 M192.2,169.6c-0.4,0-0.8-0.1-1.2-0.2c-0.4-0.2-0.8-0.4-1.1-0.7c-0.3-0.3-0.5-0.6-0.7-1c-0.2-0.4-0.2-0.8-0.2-1.2
		c0-0.4,0.1-0.8,0.2-1.2c0.2-0.4,0.4-0.7,0.7-1c0.3-0.3,0.7-0.5,1.1-0.7c0.4-0.2,0.8-0.2,1.3-0.2c0.9,0,1.7,0.4,2.3,1
		c0.6,0.6,1,1.4,1,2.2c0,0.4-0.1,0.8-0.3,1.2c-0.2,0.4-0.4,0.7-0.7,1s-0.7,0.5-1.1,0.7C193,169.5,192.6,169.6,192.2,169.6
		L192.2,169.6z"/>
</g>
</svg>
