<?xml version="1.0" encoding="utf-8"?>
<!-- Generator: Adobe Illustrator 24.1.0, SVG Export Plug-In . SVG Version: 6.00 Build 0)  -->
<svg version="1.1" id="Capa_1" xmlns="http://www.w3.org/2000/svg" xmlns:xlink="http://www.w3.org/1999/xlink" x="0px" y="0px"
	 viewBox="0 0 351.6 339" style="enable-background:new 0 0 351.6 339;" xml:space="preserve">
<style type="text/css">
	.st0{fill:#FFFFFF;}
	.st1{fill:#073DAF;}
</style>
<g>
	<path class="st0" d="M175.8,235.5c-17.8-13.1-31.7-28.9-41.7-47.4H121c9.8,19.9,25.7,41.5,51.4,59.5l2.9,2l0.5-0.2l0.5,0.3l2.9-2
		c25.7-17.9,41.6-39.5,51.4-59.5h-13.1C207.5,206.5,193.6,222.4,175.8,235.5z"/>
	<path class="st0" d="M119,145.1c-2.9-14.9-2.9-26.8-2.7-32.1c2-0.9,5-2.2,9.7-3.7c32.1-10.6,67.5-10.6,99.6,0
		c4.7,1.5,7.7,2.8,9.7,3.7c0.2,5.3,0.2,17.2-2.6,32.1c1.6-0.2,3.2-0.4,5-0.4h7c3.6-20.7,2.2-35.3,2.1-36l-0.3-2.9l-2.5-1.5
		c-3.1-1.9-8.1-4-14.8-6.2c-34.5-11.4-72.5-11.4-107,0c-6.7,2.2-11.6,4.3-14.8,6.2l-2.5,1.5l-0.3,2.9c-0.1,0.7-1.5,15.3,2.1,36h7
		C115.7,144.8,117.4,144.9,119,145.1z"/>
	<path class="st0" d="M132.7,176v-19.6h9.6c2.5,0,4.3,0.5,5.5,1.4c1.3,0.9,1.9,2.2,1.9,3.7c0,1-0.3,1.9-0.8,2.7
		c-0.5,0.7-1.2,1.3-2.1,1.7c-0.9,0.4-1.9,0.6-3,0.6l0.5-1.1c1.2,0,2.3,0.2,3.3,0.6c1,0.4,1.7,1,2.2,1.8c0.5,0.8,0.8,1.7,0.8,2.9
		c0,1.7-0.7,3-2,3.9c-1.3,0.9-3.3,1.4-5.9,1.4H132.7z M137.2,172.6h5.3c1.2,0,2.1-0.2,2.7-0.6c0.6-0.4,0.9-1,0.9-1.8
		c0-0.8-0.3-1.4-0.9-1.8c-0.6-0.4-1.5-0.6-2.7-0.6h-5.6v-3.3h4.8c1.1,0,1.9-0.2,2.5-0.6c0.6-0.4,0.9-1,0.9-1.8
		c0-0.8-0.3-1.3-0.9-1.7c-0.6-0.4-1.4-0.6-2.5-0.6h-4.5V172.6z M151.5,176l8.7-19.6h4.5l8.8,19.6h-4.8l-7.2-17.3h1.8l-7.2,17.3
		H151.5z M155.9,171.8l1.2-3.4h10.1l1.2,3.4H155.9z M181.9,176.3c-1.6,0-3.1-0.2-4.5-0.6c-1.4-0.4-2.6-1-3.5-1.7l1.5-3.4
		c0.8,0.6,1.8,1.1,3,1.5c1.2,0.4,2.3,0.6,3.5,0.6c0.9,0,1.6-0.1,2.2-0.3c0.6-0.2,1-0.4,1.2-0.8c0.3-0.3,0.4-0.7,0.4-1.1
		c0-0.5-0.2-0.9-0.6-1.2c-0.4-0.3-1-0.6-1.6-0.8c-0.7-0.2-1.4-0.4-2.2-0.6c-0.8-0.2-1.6-0.4-2.4-0.7c-0.8-0.3-1.5-0.6-2.2-1
		c-0.7-0.4-1.2-1-1.7-1.6c-0.4-0.7-0.6-1.5-0.6-2.6c0-1.1,0.3-2.1,0.9-3.1c0.6-0.9,1.5-1.7,2.7-2.2c1.2-0.6,2.8-0.8,4.6-0.8
		c1.2,0,2.4,0.1,3.6,0.4c1.2,0.3,2.2,0.7,3.2,1.3l-1.4,3.4c-0.9-0.5-1.8-0.9-2.7-1.1c-0.9-0.3-1.8-0.4-2.7-0.4
		c-0.9,0-1.6,0.1-2.2,0.3c-0.6,0.2-1,0.5-1.2,0.8c-0.2,0.3-0.4,0.7-0.4,1.1c0,0.5,0.2,0.9,0.6,1.2c0.4,0.3,1,0.5,1.6,0.7
		c0.7,0.2,1.4,0.4,2.2,0.6c0.8,0.2,1.6,0.4,2.4,0.6c0.8,0.2,1.6,0.6,2.2,1c0.7,0.4,1.2,1,1.6,1.6c0.4,0.7,0.6,1.5,0.6,2.5
		c0,1.1-0.3,2.1-0.9,3c-0.6,0.9-1.5,1.7-2.8,2.2C185.3,176.1,183.8,176.3,181.9,176.3z M193.4,176v-19.6h4.5V176H193.4z
		 M211.9,176.3c-1.5,0-2.9-0.2-4.2-0.7c-1.3-0.5-2.4-1.2-3.4-2.1c-1-0.9-1.7-2-2.2-3.2c-0.5-1.2-0.8-2.6-0.8-4.1
		c0-1.5,0.3-2.8,0.8-4.1c0.5-1.2,1.3-2.3,2.2-3.2c1-0.9,2.1-1.6,3.4-2.1c1.3-0.5,2.7-0.8,4.2-0.8c1.7,0,3.2,0.3,4.6,0.9
		c1.4,0.6,2.5,1.4,3.5,2.6l-2.9,2.7c-0.7-0.8-1.4-1.3-2.2-1.7c-0.8-0.4-1.7-0.6-2.7-0.6c-0.9,0-1.8,0.1-2.5,0.4
		c-0.8,0.3-1.4,0.7-2,1.3s-1,1.2-1.3,2c-0.3,0.8-0.4,1.6-0.4,2.5c0,0.9,0.1,1.8,0.4,2.5c0.3,0.8,0.8,1.4,1.3,2s1.2,1,2,1.3
		c0.8,0.3,1.6,0.4,2.5,0.4c1,0,1.9-0.2,2.7-0.6c0.8-0.4,1.6-1,2.2-1.8l2.9,2.7c-0.9,1.1-2.1,2-3.5,2.6
		C215.2,176,213.6,176.3,211.9,176.3z"/>
</g>
</svg>
