<?xml version="1.0" encoding="utf-8"?>
<!-- Generator: Adobe Illustrator 24.1.0, SVG Export Plug-In . SVG Version: 6.00 Build 0)  -->
<svg version="1.1" id="Layer_1" xmlns="http://www.w3.org/2000/svg" xmlns:xlink="http://www.w3.org/1999/xlink" x="0px" y="0px"
	 viewBox="0 0 612 792" style="enable-background:new 0 0 612 792;" xml:space="preserve">
<style type="text/css">
	.st0{fill:#605BA8;}
</style>
<g>
	<path class="st0" d="M118.35,310.72c-6.92-5.88-17.83-8.86-32.43-8.86H50.7v96.9h26.8v-25.17h8.67c14.05,0,24.76-2.85,31.83-8.47
		c7.3-5.81,11-14.91,11-27.07C129.01,325.93,125.43,316.73,118.35,310.72z M77.51,325.82h8.15c5.9,0,10.19,0.91,12.74,2.7
		c2.21,1.54,3.29,4.28,3.29,8.37c0,4.34-0.93,7.59-2.77,9.66c-1.71,1.93-5.58,2.95-11.19,2.95H77.51V325.82z"/>
	<polygon class="st0" points="167.48,301.86 140.68,301.86 140.68,398.75 205.95,398.75 205.95,374.15 167.48,374.15 	"/>
	<path class="st0" d="M270.54,355.02c0,6.43-1.43,11.48-4.25,15.03c-2.67,3.36-6.23,5-10.88,5c-4.66,0-8.24-1.64-10.96-5.02h0
		c-2.85-3.54-4.3-8.6-4.3-15.02v-53.16h-26.8v53.81c0,13.87,4.01,24.8,11.92,32.47c7.88,7.65,18.02,11.52,30.14,11.52
		c12.12,0,22.23-3.86,30.08-11.46c7.87-7.63,11.85-18.58,11.85-32.53v-53.81h-26.8V355.02z"/>
	<path class="st0" d="M356.45,338.03c-10.68-2.63-14.21-4.28-15.37-5.04c-1.43-0.94-2.04-1.98-2.04-3.47c0-1.63,0.52-2.79,1.69-3.75
		c1.32-1.08,3.27-1.63,5.82-1.63c7.56,0,15.05,2.77,22.26,8.23l2.77,2.1l13.9-20.06l-2.31-1.96c-4.77-4.04-10.43-7.2-16.82-9.39
		c-6.35-2.17-12.79-3.28-19.15-3.28c-9.91,0-18.34,2.57-25.05,7.64c-7,5.29-10.55,12.85-10.55,22.48c0,9.57,2.86,16.77,8.51,21.42
		c5.31,4.37,13.28,7.78,24.36,10.41c7.71,1.9,10.87,3.4,12.16,4.32c1.36,0.97,1.96,2.12,1.96,3.74c0,1.66-0.57,2.83-1.84,3.79
		c-1.5,1.14-3.76,1.72-6.7,1.72c-7.39,0-15.73-4.02-24.78-11.95l-2.6-2.28l-16.17,19.82l2.3,2.13
		c12.03,11.12,25.78,16.76,40.86,16.76c10.65,0,19.42-2.8,26.08-8.32c6.84-5.68,10.31-13.16,10.31-22.25
		c0-9.04-2.77-16.09-8.22-20.95C372.69,343.71,365.5,340.26,356.45,338.03z"/>
	<polygon class="st0" points="425.92,362.22 466.32,362.22 466.32,338.39 425.92,338.39 425.92,326.46 470.84,326.46 470.84,301.86 
		399.11,301.86 399.11,398.75 472.26,398.75 472.26,374.27 425.92,374.27 	"/>
	<path class="st0" d="M544.73,346.13v26.09c-3.84,1.79-8.57,2.69-14.09,2.69c-6.1,0-11.21-2.19-15.63-6.69
		c-4.44-4.51-6.59-10.44-6.59-18.12c0-7.67,2.25-13.63,6.89-18.22c4.64-4.6,10.21-6.84,17.02-6.84c3.52,0,6.83,0.6,9.82,1.77
		c3.03,1.19,6.46,3.44,10.19,6.7l2.81,2.45l14.26-20.59l-2.2-1.96c-10.14-9.04-22.24-13.62-35.98-13.62
		c-13.79,0-25.73,4.83-35.5,14.37c-9.79,9.56-14.75,21.64-14.75,35.89c0,14.25,4.88,26.24,14.5,35.63
		c9.6,9.36,21.61,14.11,35.7,14.11c16.75,0,30.09-5.41,39.66-16.08l0.85-0.95v-36.62H544.73z"/>
</g>
<g>
	<path class="st0" d="M304.34,176.83c-13.88,0-25.17,11.29-25.17,25.17s11.29,25.17,25.17,25.17s25.17-11.29,25.17-25.17
		S318.22,176.83,304.34,176.83z M304.34,215.06c-7.2,0-13.05-5.86-13.05-13.05s5.86-13.05,13.05-13.05s13.05,5.86,13.05,13.05
		S311.54,215.06,304.34,215.06z"/>
	<path class="st0" d="M375.23,185.88c-13.88,0-25.17,11.29-25.17,25.17s11.29,25.17,25.17,25.17c13.88,0,25.17-11.29,25.17-25.17
		S389.11,185.88,375.23,185.88z M375.23,224.11c-7.2,0-13.05-5.86-13.05-13.05S368.03,198,375.23,198s13.05,5.86,13.05,13.05
		S382.43,224.11,375.23,224.11z"/>
	<path class="st0" d="M446.09,200.66c-13.88,0-25.17,11.29-25.17,25.17s11.29,25.17,25.17,25.17c13.88,0,25.17-11.29,25.17-25.17
		S459.97,200.66,446.09,200.66z M446.09,238.89c-7.2,0-13.05-5.86-13.05-13.05s5.86-13.05,13.05-13.05s13.05,5.86,13.05,13.05
		S453.29,238.89,446.09,238.89z"/>
	<path class="st0" d="M233.44,185.88c-13.88,0-25.17,11.29-25.17,25.17s11.29,25.17,25.17,25.17s25.17-11.29,25.17-25.17
		S247.33,185.88,233.44,185.88z M233.44,224.11c-7.2,0-13.05-5.86-13.05-13.05S226.25,198,233.44,198s13.05,5.86,13.05,13.05
		S240.64,224.11,233.44,224.11z"/>
	<path class="st0" d="M162.59,200.66c-13.88,0-25.17,11.29-25.17,25.17s11.29,25.17,25.17,25.17c13.88,0,25.17-11.29,25.17-25.17
		S176.47,200.66,162.59,200.66z M162.59,238.89c-7.2,0-13.05-5.86-13.05-13.05s5.86-13.05,13.05-13.05s13.05,5.86,13.05,13.05
		S169.79,238.89,162.59,238.89z"/>
</g>
<g>
	<path class="st0" d="M304.37,582.01c-59.46-43.7-106.09-96.8-139.5-158.65h-43.93c32.79,66.65,85.91,138.89,172.01,198.92
		l9.75,6.62l1.57-0.78l1.81,0.92l9.69-6.76c86.1-60.03,139.22-132.26,172.01-198.92h-43.93
		C410.46,485.21,363.83,538.31,304.37,582.01z"/>
	<path class="st0" d="M114.22,279.86c-9.57-49.98-9.57-89.7-8.87-107.51c6.62-3.1,16.87-7.28,32.46-12.45
		c107.41-35.57,225.71-35.57,333.12,0c15.59,5.17,25.84,9.35,32.46,12.45c0.7,17.82,0.71,57.54-8.86,107.5
		c5.2-0.83,10.81-1.27,16.86-1.27h23.43c12.21-69.31,7.39-118.08,7.13-120.52l-1.01-9.63l-8.24-5.08
		c-10.45-6.44-27.07-13.46-49.38-20.85c-115.4-38.22-242.49-38.22-357.89,0c-22.31,7.39-38.93,14.4-49.38,20.85l-8.24,5.08
		l-1.01,9.63c-0.26,2.44-5.08,51.21,7.13,120.52h23.42C103.41,278.59,109.01,279.02,114.22,279.86z"/>
</g>
</svg>
