<svg width="50" height="50" viewBox="0 0 50 50" fill="none" xmlns="http://www.w3.org/2000/svg">
<path d="M40.9985 15H10.0015C8.87243 15 8 13.8462 8 12.5C8 11.1538 8.87243 10 10.0015 10H40.9985C42.1274 10 43 11.1538 43 12.5C43 13.8462 42.1274 15 40.9985 15Z" fill="white"/>
<path d="M40.9985 28H10.0015C8.87243 28 8 26.8461 8 25.5C8 24.1538 8.92375 23 10.0015 23H40.9985C42.1274 23 43 24.1538 43 25.5C43 26.8461 42.1274 28 40.9985 28Z" fill="white"/>
<path d="M40.9985 40H10.0015C8.87243 40 8 38.8461 8 37.4998C8 36.0897 8.92375 35 10.0015 35H40.9985C42.1274 35 43 36.1536 43 37.4998C43 38.8461 42.1274 40 40.9985 40Z" fill="white"/>
</svg>
